<svg xmlns="http://www.w3.org/2000/svg" width="60" height="43.28" viewBox="0 0 60 43.28">
  <g id="Group_1842" data-name="Group 1842" transform="translate(-746 -3206)">
    <path id="Path_1800" data-name="Path 1800" d="M32,10c-1.225,0-30,.068-30,6V48c0,.885,0,3.577,13.886,5.165A1,1,0,0,0,17,52.171V44.729A146,146,0,0,1,32,44c4.921,0,9.734.218,14,.628V52.28a1,1,0,0,0,1,1,.644.644,0,0,0,.1-.005C56.988,52.243,62,50.468,62,48V16C62,10.068,33.225,10,32,10ZM15,51.043C6.5,49.971,4.145,48.445,4,48V18.462c1.732.9,4.965,1.855,11,2.6Zm33,.122V21.178c5.79-.651,9.8-1.573,12-2.753v29.55C59.845,48.477,57.281,50.1,48,51.165ZM46.9,19.286a1,1,0,0,0-.9.994V42.619c-4.281-.4-9.09-.619-14-.619a148.648,148.648,0,0,0-15,.718V20.171a1,1,0,0,0-.886-.994C6.763,18.108,4.181,16.483,4,16.033v-.017C4.493,14.57,14.237,12,32,12c17.8,0,27.547,2.581,28,3.975C59.839,16.5,57.079,18.222,46.9,19.286Z" transform="translate(744 3196)" fill="currentColor"/>
    <path id="Path_1801" data-name="Path 1801" d="M41.647,25.479a13.229,13.229,0,0,0-8.56-4.069,6.771,6.771,0,0,0-.961-.077,6.865,6.865,0,0,0-.841.058,13.225,13.225,0,0,0-8.774,3.976l-2.224,2.266a1,1,0,0,0,0,1.4L22.511,31.3a13.221,13.221,0,0,0,8.77,3.975,6.723,6.723,0,0,0,.845.058,6.8,6.8,0,0,0,.963-.076,13.231,13.231,0,0,0,8.558-4.069l2.075-2.162a1,1,0,0,0,0-1.385Zm-4.631,2.854a4.949,4.949,0,0,1-4.395,4.949c-.178.01-.353.029-.532.03h-.067c-.067,0-.133-.009-.2-.01a4.984,4.984,0,0,1-.019-9.935c.1,0,.19-.013.286-.013.175,0,.348.021.522.03a4.947,4.947,0,0,1,4.405,4.949Zm-14.615,0,1.537-1.564A11.525,11.525,0,0,1,26.022,25.1a7.054,7.054,0,0,0,0,6.47,11.556,11.556,0,0,1-2.083-1.67ZM40.2,29.8a11.568,11.568,0,0,1-1.887,1.582,7.012,7.012,0,0,0,0-6.1A11.61,11.61,0,0,1,40.2,26.863l1.41,1.47Z" transform="translate(744 3196)" fill="currentColor"/>
  </g>
</svg>
