<svg xmlns="http://www.w3.org/2000/svg" xmlns:xlink="http://www.w3.org/1999/xlink" width="501.398" height="586.896" viewBox="0 0 501.398 586.896">
  <defs>
    <linearGradient id="linear-gradient" x1="0.5" y1="1.161" x2="0.5" y2="0.272" gradientUnits="objectBoundingBox">
      <stop offset="0" stop-color="#4f2280"/>
      <stop offset="1" stop-color="#d4145a"/>
    </linearGradient>
    <linearGradient id="linear-gradient-2" x1="0.5" y1="0.697" x2="0.5" y2="-0.388" xlink:href="#linear-gradient"/>
    <linearGradient id="linear-gradient-3" x1="0.5" y1="0.986" x2="0.5" y2="-0.275" xlink:href="#linear-gradient"/>
    <linearGradient id="linear-gradient-4" x1="0" y1="0.516" x2="1" y2="0.516" xlink:href="#linear-gradient"/>
    <linearGradient id="linear-gradient-5" x1="0" y1="0.5" x2="1" y2="0.5" xlink:href="#linear-gradient"/>
    <linearGradient id="linear-gradient-6" x1="0.5" y1="0.041" x2="0.5" y2="0.724" xlink:href="#linear-gradient"/>
    <linearGradient id="linear-gradient-7" x1="0.5" y1="-0.513" x2="0.5" y2="1.635" xlink:href="#linear-gradient"/>
  </defs>
  <g id="Objects" transform="translate(0 0)">
    <path id="Path_1841" data-name="Path 1841" d="M14.18,43C26.937,56.01,45.644,61.22,62.587,51.767A45.246,45.246,0,0,0,85,16.8,335.316,335.316,0,0,1,47.979,32.547,343.275,343.275,0,0,1,14.18,43Z" transform="translate(26.203 31.043)" fill="#f66"/>
    <path id="Path_1842" data-name="Path 1842" d="M91.633,25.887a15.432,15.432,0,0,0-.74-1.708,26.662,26.662,0,0,0-1.452-2.847C77.908.431,50.943-5.947,29.53,5.927,11.505,15.95,5.44,34.458,10.908,52.511a14.522,14.522,0,0,0,.569,1.794,51.568,51.568,0,0,0,3.673,8.343,53.646,53.646,0,0,0,7.2,10.052A348.246,348.246,0,0,0,57.093,62.022,326,326,0,0,0,94.851,45.876,44.99,44.99,0,0,0,91.633,25.887Z" transform="translate(16.577 0.002)" fill="#f66"/>
    <path id="Path_1843" data-name="Path 1843" d="M138.647,11.208c-1.424-3.958-9.6-4.7-24.26-2.278-2.193.37-4.5.8-6.862,1.31a15.436,15.436,0,0,1,.74,1.708c2.221-.456,4.357-.854,6.435-1.2,2.705-.456,5.154-.8,7.318-1.025a41,41,0,0,1,10.934,0c2.42.427,3.645,1.2,3.986,2.079.769,2.164-3.1,7.261-16.4,15.063-2.847,1.623-5.695,3.275-9.112,4.955A326,326,0,0,1,73.668,47.969,348.248,348.248,0,0,1,38.929,58.646c-5.268,1.281-10.222,2.335-14.75,3.075C8.973,64.284,2.851,62.946,1.94,60.668c-1.281-3.531,8.542-11.39,26.111-20.3a14.521,14.521,0,0,1-.569-1.794C10.226,47.285-1.733,55.941.2,61.352c1.139,3.218,6.72,4.3,16.572,3.332,2.335-.256,4.869-.6,7.688-1.054,4.869-.826,10.222-1.936,15.917-3.388a343.26,343.26,0,0,0,33.913-10.45,335.315,335.315,0,0,0,37.017-15.746c3.673-1.851,7.09-3.7,10.194-5.524,11.931-6.976,17.8-12.5,17.4-16.43a3.9,3.9,0,0,0-.256-.883Z" transform="translate(0.002 13.941)" fill="#fbc96b"/>
    <path id="Path_1844" data-name="Path 1844" d="M19.319,14.685a4.357,4.357,0,0,1-5.695-2.648,4.072,4.072,0,0,1,2.05-5.695,4.5,4.5,0,0,1,5.98,2.193A4.755,4.755,0,0,1,19.319,14.685Z" transform="translate(24.282 10.948)" fill="#ef5b5b"/>
    <path id="Path_1845" data-name="Path 1845" d="M14.759,13.532a2.306,2.306,0,0,1-2.99-1.424,2.164,2.164,0,0,1,1.082-2.961,2.392,2.392,0,0,1,3.189,1.167A2.534,2.534,0,0,1,14.759,13.532Z" transform="translate(21.324 16.486)" fill="#ef5b5b"/>
    <path id="Path_1846" data-name="Path 1846" d="M34.006,30.234a2.278,2.278,0,0,1-2.847-1.4A2.193,2.193,0,0,1,32.24,25.82,2.392,2.392,0,0,1,35.4,26.988,2.506,2.506,0,0,1,34.006,30.234Z" transform="translate(57.119 47.309)" fill="#ef5b5b"/>
    <path id="Path_1847" data-name="Path 1847" d="M147.144,36.563a3.787,3.787,0,0,0-2.022.569l-13.5-13.5a4.015,4.015,0,0,0,.541-1.993,4.1,4.1,0,1,0-8.172,0,4.015,4.015,0,0,0,.541,1.993l-13.5,13.5a4.385,4.385,0,0,0-2.107-.569,4.015,4.015,0,0,0-1.993.541L93.47,23.664a4.015,4.015,0,0,0,.541-1.993,4.1,4.1,0,1,0-4.072,4.072,3.93,3.93,0,0,0,2.107-.569l13.468,13.468a3.929,3.929,0,0,0-.541,1.993,4.1,4.1,0,1,0,8.172,0,3.986,3.986,0,0,0-.513-1.908l13.582-13.554a3.986,3.986,0,0,0,4.015,0l13.5,13.5a4.215,4.215,0,0,0-.513,1.965,4.1,4.1,0,1,0,3.929-4.072Z" transform="translate(158.537 31.782)" fill="#fff"/>
    <path id="Path_1848" data-name="Path 1848" d="M279.943,58.971V368.4a9.283,9.283,0,0,1-9.283,9.283H100.553A9.283,9.283,0,0,1,91.27,368.4V58.971a9.311,9.311,0,0,1,9.283-9.311H270.66A9.311,9.311,0,0,1,279.943,58.971Z" transform="translate(168.624 91.751)" fill="#da4444"/>
    <path id="Path_1849" data-name="Path 1849" d="M251.585,60.722V328.867a5.012,5.012,0,0,1-5.04,5.012H102.35a5.012,5.012,0,0,1-5.04-5.012V60.722a5.012,5.012,0,0,1,5.04-5.012h144.2a5.012,5.012,0,0,1,5.04,5.012Z" transform="translate(179.782 102.928)" fill="#fbc96b"/>
    <path id="Path_1850" data-name="Path 1850" d="M130.072,173.375h0a8.713,8.713,0,0,1-8.742-8.713h0a8.713,8.713,0,0,1,8.742-8.742h0a8.713,8.713,0,0,1,8.713,8.742h0A8.713,8.713,0,0,1,130.072,173.375Z" transform="translate(224.158 288.062)" fill="#f66"/>
    <path id="Path_1851" data-name="Path 1851" d="M251.585,60.722V142.5H97.31V60.722a5.012,5.012,0,0,1,5.04-5.012h144.2a5.012,5.012,0,0,1,5.04,5.012Z" transform="translate(179.782 102.928)" opacity="0.33" fill="url(#linear-gradient)"/>
    <circle id="Ellipse_38" data-name="Ellipse 38" cx="35.593" cy="35.593" r="35.593" transform="translate(318.637 209.835)" opacity="0.33" fill="url(#linear-gradient-2)"/>
    <path id="Path_1852" data-name="Path 1852" d="M141.675,99.362a8.542,8.542,0,0,0,2.848-6.407V88.712a8.884,8.884,0,0,0-8.372-9,8.542,8.542,0,0,0-8.884,8.542V92.87a8.542,8.542,0,0,0,2.847,6.407,18.252,18.252,0,0,0-11.845,12.671,3.7,3.7,0,0,0,3.645,4.584h27.962a3.7,3.7,0,0,0,3.616-4.584,18.2,18.2,0,0,0-11.817-12.586Z" transform="translate(218.307 147.263)" fill="#fff"/>
    <g id="Group_1868" data-name="Group 1868" transform="translate(393.525 280.224)" opacity="0.2">
      <path id="Path_1853" data-name="Path 1853" d="M193.241,98.894v95.5a48.782,48.782,0,0,1-6.805.484,48.236,48.236,0,1,1,0-96.472h1.623A51.536,51.536,0,0,1,193.241,98.894Z" transform="translate(-138.2 -98.41)"/>
    </g>
    <path id="Path_1854" data-name="Path 1854" d="M199.745,166.122A48.208,48.208,0,0,0,178.189,95.79L159.14,140.1Z" transform="translate(294.011 176.974)" fill="#4c37a8"/>
    <path id="Path_1855" data-name="Path 1855" d="M205.832,188.208l-15.49-45.559,1.595-48.179h-1.595a48.236,48.236,0,1,0,15.49,93.966Z" transform="translate(262.809 174.536)" fill="#552283"/>
    <path id="Path_1856" data-name="Path 1856" d="M174.63,157.023a48.179,48.179,0,0,0,25.115-19.647l-40.6-26.026Z" transform="translate(294.011 205.721)" fill="#eb5259"/>
    <path id="Path_1857" data-name="Path 1857" d="M178.189,98.3a47.04,47.04,0,0,0-17.455-3.873l-1.595,48.179Z" transform="translate(294.011 174.462)" fill="#c5d7d8"/>
    <path id="Path_1858" data-name="Path 1858" d="M209.523,98.3a47.04,47.04,0,0,0-17.455-3.873h-1.595a48.264,48.264,0,1,0,19.05,3.929Z" transform="translate(262.678 174.462)" opacity="0.33" fill="url(#linear-gradient-3)"/>
    <path id="Path_1859" data-name="Path 1859" d="M126.248,105.607a2.868,2.868,0,0,1-2.848-2.847,2.591,2.591,0,0,1,.228-1.111,2.847,2.847,0,0,1,.6-.911,2.248,2.248,0,0,1,.427-.342l.513-.285h.513a2.449,2.449,0,0,1,1.11,0h.541a2.846,2.846,0,0,1,.484.285,1.737,1.737,0,0,1,.456.342,2.862,2.862,0,0,1-2.022,4.869Z" transform="translate(227.982 184.84)" fill="#fff"/>
    <path id="Path_1860" data-name="Path 1860" d="M123.4,117.613a2.847,2.847,0,0,1,2.847-2.847h0a2.847,2.847,0,0,1,2.847,2.847h0a2.847,2.847,0,0,1-2.847,2.847h0A2.847,2.847,0,0,1,123.4,117.613Zm0-10.906a2.847,2.847,0,0,1,2.847-2.847h0a2.847,2.847,0,0,1,2.847,2.847h0a2.847,2.847,0,0,1-2.847,2.847h0A2.847,2.847,0,0,1,123.4,106.707Z" transform="translate(227.983 191.883)" fill="#fff"/>
    <path id="Path_1861" data-name="Path 1861" d="M126.248,117.137a2.847,2.847,0,0,1-2.022-.854,3.446,3.446,0,0,1-.626-.911,2.934,2.934,0,0,1,.626-3.1l.427-.37.513-.256h.513a2.449,2.449,0,0,1,1.11,0h.541l.484.256.456.37a2.847,2.847,0,0,1,.6.911,3.1,3.1,0,0,1,.228,1.111,2.868,2.868,0,0,1-2.847,2.847Z" transform="translate(227.983 206.141)" fill="#fff"/>
    <path id="Path_1862" data-name="Path 1862" d="M147.7,114.377a2.847,2.847,0,0,1,2.847-2.847h0a2.847,2.847,0,0,1,2.847,2.847h0a2.847,2.847,0,0,1-2.847,2.847h0A2.847,2.847,0,0,1,147.7,114.377Zm-10.308,0a2.847,2.847,0,0,1,2.847-2.847h0a2.847,2.847,0,0,1,2.847,2.847h0a2.847,2.847,0,0,1-2.847,2.847h0a2.847,2.847,0,0,1-2.848-2.848Zm-10.308,0a2.847,2.847,0,0,1,2.847-2.847h0a2.847,2.847,0,0,1,2.847,2.847h0a2.847,2.847,0,0,1-2.847,2.847h0A2.847,2.847,0,0,1,127,114.377Z" transform="translate(234.634 206.053)" fill="#fff"/>
    <path id="Path_1863" data-name="Path 1863" d="M140.747,117.236a2.868,2.868,0,1,1,2.022-.854A2.847,2.847,0,0,1,140.747,117.236Z" transform="translate(254.771 206.042)" fill="#fff"/>
    <rect id="Rectangle_571" data-name="Rectangle 571" width="94.906" height="5.695" transform="translate(291.102 340.249)" fill="#dda345"/>
    <rect id="Rectangle_572" data-name="Rectangle 572" width="94.906" height="5.695" transform="translate(291.102 357.448)" fill="#dda345"/>
    <rect id="Rectangle_573" data-name="Rectangle 573" width="36.077" height="5.695" transform="translate(291.102 373.849)" fill="#dda345"/>
    <path id="Path_1864" data-name="Path 1864" d="M114.279,171.233a28.845,28.845,0,1,1,57.661,0" transform="translate(211.106 261.388)" opacity="0.33" fill="url(#linear-gradient-4)"/>
    <rect id="Rectangle_574" data-name="Rectangle 574" width="125.772" height="5.695" transform="translate(291.33 171.395)" fill="url(#linear-gradient-5)"/>
    <path id="Path_1865" data-name="Path 1865" d="M270.545,183.068a2.847,2.847,0,0,1,2.847-2.847h0a2.847,2.847,0,0,1,2.847,2.847h0a2.847,2.847,0,0,1-2.847,2.847h0A2.847,2.847,0,0,1,270.545,183.068Zm0-11.39a2.847,2.847,0,0,1,2.847-2.847h0a2.847,2.847,0,0,1,2.847,2.847h0a2.847,2.847,0,0,1-2.847,2.847h0A2.847,2.847,0,0,1,270.545,171.678Zm0-11.39a2.847,2.847,0,0,1,2.847-2.847h0a2.847,2.847,0,0,1,2.847,2.847h0a2.847,2.847,0,0,1-2.847,2.847h0A2.847,2.847,0,0,1,270.545,160.288Zm0-11.39a2.847,2.847,0,0,1,2.847-2.847h0a2.847,2.847,0,0,1,2.847,2.847h0a2.847,2.847,0,0,1-2.847,2.847h0A2.847,2.847,0,0,1,270.545,148.9Zm0-11.39a2.847,2.847,0,0,1,2.847-2.847h0a2.847,2.847,0,0,1,2.847,2.847h0a2.847,2.847,0,0,1-2.847,2.847h0A2.847,2.847,0,0,1,270.545,137.509Zm0-11.39a2.847,2.847,0,0,1,2.847-2.847h0a2.847,2.847,0,0,1,2.847,2.847h0a2.847,2.847,0,0,1-2.847,2.847h0A2.847,2.847,0,0,1,270.545,126.119Zm0-11.39a2.847,2.847,0,0,1,2.847-2.847h0a2.847,2.847,0,0,1,2.847,2.847h0a2.847,2.847,0,0,1-2.847,2.847h0A2.847,2.847,0,0,1,270.545,114.729Zm0-11.39a2.847,2.847,0,0,1,2.847-2.847h0a2.847,2.847,0,0,1,2.847,2.847h0a2.847,2.847,0,0,1-2.847,2.847h0A2.847,2.847,0,0,1,270.545,103.339Zm0-11.39a2.847,2.847,0,0,1,2.847-2.847h0a2.847,2.847,0,0,1,2.847,2.847h0a2.847,2.847,0,0,1-2.847,2.847h0A2.847,2.847,0,0,1,270.545,91.949Zm0-11.39a2.847,2.847,0,0,1,2.847-2.847h0a2.847,2.847,0,0,1,2.847,2.847h0a2.847,2.847,0,0,1-2.847,2.847h0A2.847,2.847,0,0,1,270.545,80.559Zm0-11.39a2.847,2.847,0,0,1,2.847-2.847h0a2.847,2.847,0,0,1,2.847,2.847h0a2.847,2.847,0,0,1-2.847,2.847h0A2.847,2.847,0,0,1,270.545,69.17Zm0-11.39a2.847,2.847,0,0,1,2.847-2.847h0a2.847,2.847,0,0,1,2.847,2.847h0a2.847,2.847,0,0,1-2.847,2.847h0A2.847,2.847,0,0,1,270.545,57.78Zm0-11.39a2.847,2.847,0,0,1,2.847-2.847h0a2.847,2.847,0,0,1,2.847,2.847h0a2.847,2.847,0,0,1-2.847,2.847h0A2.847,2.847,0,0,1,270.545,46.39ZM267.7,37.847A2.847,2.847,0,0,1,270.545,35h0a2.847,2.847,0,0,1,2.847,2.847h0a2.847,2.847,0,0,1-2.847,2.847h0A2.847,2.847,0,0,1,267.7,37.847Zm-11.39,0A2.847,2.847,0,0,1,259.155,35h0A2.847,2.847,0,0,1,262,37.847h0a2.847,2.847,0,0,1-2.847,2.847h0A2.847,2.847,0,0,1,256.308,37.847Zm-11.39,0A2.847,2.847,0,0,1,247.766,35h0a2.847,2.847,0,0,1,2.847,2.847h0a2.847,2.847,0,0,1-2.847,2.847h0A2.847,2.847,0,0,1,244.918,37.847Zm-11.39,0A2.847,2.847,0,0,1,236.376,35h0a2.847,2.847,0,0,1,2.848,2.847h0a2.847,2.847,0,0,1-2.848,2.847h0A2.847,2.847,0,0,1,233.528,37.847Zm-11.39,0A2.847,2.847,0,0,1,224.986,35h0a2.847,2.847,0,0,1,2.847,2.847h0a2.847,2.847,0,0,1-2.847,2.847h0A2.847,2.847,0,0,1,222.138,37.847Zm-11.39,0A2.847,2.847,0,0,1,213.6,35h0a2.847,2.847,0,0,1,2.847,2.847h0a2.847,2.847,0,0,1-2.847,2.847h0A2.847,2.847,0,0,1,210.749,37.847Zm-11.39,0A2.847,2.847,0,0,1,202.206,35h0a2.847,2.847,0,0,1,2.847,2.847h0a2.847,2.847,0,0,1-2.847,2.847h0A2.847,2.847,0,0,1,199.359,37.847Zm-11.39,0A2.847,2.847,0,0,1,190.816,35h0a2.847,2.847,0,0,1,2.847,2.847h0a2.847,2.847,0,0,1-2.847,2.847h0A2.847,2.847,0,0,1,187.969,37.847Zm-11.39,0A2.847,2.847,0,0,1,179.427,35h0a2.847,2.847,0,0,1,2.847,2.847h0a2.847,2.847,0,0,1-2.847,2.847h0A2.847,2.847,0,0,1,176.579,37.847Zm-11.39,0A2.847,2.847,0,0,1,168.037,35h0a2.847,2.847,0,0,1,2.847,2.847h0a2.847,2.847,0,0,1-2.847,2.847h0A2.847,2.847,0,0,1,165.189,37.847Zm-11.39,0A2.847,2.847,0,0,1,156.647,35h0a2.847,2.847,0,0,1,2.847,2.847h0a2.847,2.847,0,0,1-2.847,2.847h0A2.847,2.847,0,0,1,153.8,37.847Zm-11.39,0A2.847,2.847,0,0,1,145.257,35h0a2.847,2.847,0,0,1,2.847,2.847h0a2.847,2.847,0,0,1-2.847,2.847h0A2.847,2.847,0,0,1,142.41,37.847Zm-11.39,0A2.847,2.847,0,0,1,133.867,35h0a2.847,2.847,0,0,1,2.847,2.847h0a2.847,2.847,0,0,1-2.847,2.847h0A2.847,2.847,0,0,1,131.02,37.847Zm-11.39,0A2.847,2.847,0,0,1,122.477,35h0a2.847,2.847,0,0,1,2.847,2.847h0a2.847,2.847,0,0,1-2.847,2.847h0A2.847,2.847,0,0,1,119.63,37.847Zm-11.39,0A2.847,2.847,0,0,1,111.087,35h0a2.847,2.847,0,0,1,2.847,2.847h0a2.847,2.847,0,0,1-2.847,2.847h0A2.847,2.847,0,0,1,108.24,37.847Z" transform="translate(199.975 64.667)" fill="#fff"/>
    <g id="Group_1869" data-name="Group 1869" transform="translate(137.567 62.935)" opacity="0.5">
      <path id="Path_1866" data-name="Path 1866" d="M202.585,27.112v268.06a5.012,5.012,0,0,1-5.04,5.012H53.35a5.011,5.011,0,0,1-5.04-5.012V27.112A5.012,5.012,0,0,1,53.35,22.1h144.2a5.012,5.012,0,0,1,5.04,5.012Z" transform="translate(-48.31 -22.1)" fill="#fbc96b"/>
    </g>
    <g id="Group_1870" data-name="Group 1870" transform="translate(149.925 75.321)" opacity="0.6">
      <rect id="Rectangle_575" data-name="Rectangle 575" width="65.435" height="65.435" fill="#ea5d3f"/>
    </g>
    <rect id="Rectangle_576" data-name="Rectangle 576" width="27.962" height="27.962" transform="translate(187.397 144.401)" fill="#f66" opacity="0.6"/>
    <ellipse id="Ellipse_39" data-name="Ellipse 39" cx="74.062" cy="9.112" rx="74.062" ry="9.112" transform="translate(143.717 568.672)" fill="#d8bda7" opacity="0.32"/>
    <path id="Path_1867" data-name="Path 1867" d="M139.084,100.77c.541,0,.911.171,0,.712a32.634,32.634,0,0,0-4.869,5.467,35.026,35.026,0,0,1-6.435,7.346,100.974,100.974,0,0,1-17.8,7.887c-1.936.228-5.524-.171-1.139-8.343a10.166,10.166,0,0,1,6.35-6.094,48.921,48.921,0,0,1,8.542-3.189c.826.256.313,1.452-5.353,4.841-.883,1.025,3.929,2.449,5.695,2.107s2.847-6.578,4.1-7.688a2.62,2.62,0,0,1,2.534-.883c.626.228-.626,1.908-1.481,3.873a3.872,3.872,0,0,0-.313,3.132,64.782,64.782,0,0,1,6.378-7.346A7.119,7.119,0,0,1,139.084,100.77Z" transform="translate(197.236 186.175)" fill="#e49f98"/>
    <path id="Path_1868" data-name="Path 1868" d="M113.749,126.139a79.106,79.106,0,0,0,6.435-9.482c1.253-2.192,7.688-5.04,12.216-4.271,0,0,2.363-7.887,3.787-8.542s2.591-.37,1.765,1.2a47.925,47.925,0,0,0-2.107,6.065s3.531,1.424,4.043-1.68,3.132-7.4,5.04-7.859,2.079,0,.513,2.022a8.543,8.543,0,0,0-1.851,6.122c.37,1-3.218,3.93-6.264,5.695s-11.39,5.524-13.7,8.03-14.778,19.761-14.778,19.761L99.91,138.81Z" transform="translate(184.586 187.344)" fill="#f8b7b0"/>
    <path id="Path_1869" data-name="Path 1869" d="M90.157,124.472a23.748,23.748,0,0,0,21.669-8c2.363-3.018-5.268-6.037-8-9.055a8.941,8.941,0,0,1-1.708-6.037A70.619,70.619,0,0,1,103.825,88L80.077,83.81s.769,11.931.769,16.373a6.549,6.549,0,0,1-.285,2.079c-.854,2.847-3.7,3.986-8.229,7.631C66.808,114.363,78.369,122.906,90.157,124.472Z" transform="translate(131.011 154.842)" fill="#f8b7b0"/>
    <path id="Path_1870" data-name="Path 1870" d="M75.385,94.675c-2.05-.2-3.275.228-3.929-9.112A13.07,13.07,0,0,1,75.1,73.974s5.012-1.082,5.695,5.353S79.713,93.48,75.385,94.675Z" transform="translate(131.632 136.544)" fill="#1c1e38"/>
    <path id="Path_1871" data-name="Path 1871" d="M74.9,100.2a8.287,8.287,0,0,1,0,.854,13.81,13.81,0,0,0,8.144,4.3,21.384,21.384,0,0,0,13.212-5.923,86.763,86.763,0,0,1,1.652-11.39L74.13,83.8S74.9,95.759,74.9,100.2Z" transform="translate(136.958 154.823)" fill="#e49f98"/>
    <path id="Path_1872" data-name="Path 1872" d="M105.731,97.988c-1.025,10.222-1.708,15.177-6.151,19.334A19.932,19.932,0,0,1,86.853,123.5c-4.613,0-11.39-7.261-12.614-11.561a78.933,78.933,0,0,1-1.424-27.193A16.515,16.515,0,0,1,87.764,72.19C94.968,72.19,108.237,73.044,105.731,97.988Z" transform="translate(133.461 133.374)" fill="#f8b7b0"/>
    <path id="Path_1873" data-name="Path 1873" d="M71.895,87.135c.854,3.73,3.1,6.378,5.04,5.951s2.847-3.816,2.05-7.517-3.1-6.407-5.04-5.98S71.069,83.4,71.895,87.135Z" transform="translate(132.274 146.961)" fill="#f8b7b0"/>
    <path id="Path_1874" data-name="Path 1874" d="M106.129,81.968a36.476,36.476,0,0,1-21.413,2.677C72.33,82.879,72.33,79.86,72.33,79.86a12.1,12.1,0,0,1,10.678-8.77C91.522,70.549,103.737,71.09,106.129,81.968Z" transform="translate(133.633 131.085)" fill="#1c1e38"/>
    <path id="Path_1875" data-name="Path 1875" d="M86.16,94.675c-2.022-.2-3.246.228-3.9-9.112A12.984,12.984,0,0,1,85.9,73.974s4.983-1.082,5.695,5.353S90.46,93.48,86.16,94.675Z" transform="translate(151.58 136.544)" fill="#1c1e38"/>
    <path id="Path_1876" data-name="Path 1876" d="M162.6,155.112l24.061-12.13,2.136,15.148-34.767,18.395-15.234-34.17s-.256,50.941-.911,58-2.335,7.6-5.3,7.6H84.489c-3.3,0-5.695-3.531-5.1-9.8.456-5.068,3.7-46.528,2.335-65.064,0,0-2.392,15.917-3.844,33.486l30.069,26.681-4.1,11.988L61.14,176.127s.4-59.284,13.127-71.187c4.9-4.527,16.857-12.757,22.1-13.81l13.269,7.66,1.139,3.018.683-3.1L120,92.326c7.859,1.338,19.22,9.226,20.9,12.443C144.77,112.287,162.6,155.112,162.6,155.112Z" transform="translate(112.96 168.365)" fill="#f22f5d"/>
    <path id="Path_1877" data-name="Path 1877" d="M83.507,84.5c-1.424,3.531-1.111,7,.74,7.774s4.527-1.509,5.98-5.04,1.111-7-.74-7.774S84.959,80.966,83.507,84.5Z" transform="translate(152.639 146.524)" fill="#f8b7b0"/>
    <path id="Path_1878" data-name="Path 1878" d="M76.117,89.86A8.087,8.087,0,0,0,72.7,95.555,51.881,51.881,0,0,0,83.321,108.91s1.879-6.521,4.955-7.745Z" transform="translate(134.316 166.019)" fill="#cc1d4f"/>
    <path id="Path_1879" data-name="Path 1879" d="M88.975,89.72a15.205,15.205,0,0,1,1,6.749A35.792,35.792,0,0,1,80.86,109a10.137,10.137,0,0,0-2.05-7.745Z" transform="translate(145.604 165.76)" fill="#cc1d4f"/>
    <path id="Path_1880" data-name="Path 1880" d="M73.356,119.892c-.37,7.261-.8,14.066-1.167,19.277l-6.748-4.584c1.509-5.41,4.613-13.412,5.695-16.515Z" transform="translate(120.904 218.136)" fill="#cc1d4f"/>
    <path id="Path_1881" data-name="Path 1881" d="M77.687,199.493c.94,3.445,2.563,5.98,1.424,7.944s-.37,3.275.883,6.037,5.154,8.2-5.182,8.542c-11.077.228-16.658-2.62-14.778-8.542a22.78,22.78,0,0,0,1.538-9.966,6.663,6.663,0,0,1,1.652-5.211C64.56,196.873,76.15,193.485,77.687,199.493Z" transform="translate(110.251 362.203)" fill="#4c37a8"/>
    <path id="Path_1882" data-name="Path 1882" d="M101.664,198.587a32.4,32.4,0,0,0,12.728,10.792c6.948,3.616,21.5,6.777,12.842,8.884S112.8,220.085,99.7,215.757a22.1,22.1,0,0,0-10.906-1.566c-5.894.256-10.222,1.822-7.46-9.6S98.646,191.753,101.664,198.587Z" transform="translate(148.69 359.265)" fill="#4c37a8"/>
    <path id="Path_1883" data-name="Path 1883" d="M81.139,132.84s0-2.42,2.136-2.705,5.325-1.025,29.016-1.025,27.506.6,27.506,2.193c0,0,2.449,80.412,1.822,93.966s-2.42,80.014-1.822,85.993a64.861,64.861,0,0,0,1.936,10.593l-8.542-2.278s-13.269,7.6-14.778,10.165-.228-5.695-1.025-14.237,1.224-78.818,1.538-88.556-5.695-61.334-5.695-61.334h-4.414s-12.33,40.719-14.237,51.6-3.531,18.053-4.9,23.719c-1.936,8.172-10.137,70.1-11.048,75.8a44.078,44.078,0,0,0,0,11.76l-5.012-4.983s-11.589,1.139-13.412,5.325c0,0,5.439-88.271,8.542-100.2S81.139,132.84,81.139,132.84Z" transform="translate(111.242 238.532)" fill="#fcba6b"/>
    <path id="Path_1884" data-name="Path 1884" d="M75.28,83.82A3.36,3.36,0,0,0,78.839,86.5a3.616,3.616,0,0,0,3.275-1.765,5.239,5.239,0,0,1-2.847.883A4.812,4.812,0,0,1,75.28,83.82Z" transform="translate(139.083 154.86)" fill="#e49f98"/>
    <path id="Path_1885" data-name="Path 1885" d="M110.452,108.18a148.3,148.3,0,0,1,2.193,19.106l-9.055,5.154.968-21.043Z" transform="translate(191.384 199.864)" fill="#cc1d4f"/>
    <path id="Path_1886" data-name="Path 1886" d="M88.817,45.354c0,8.258-14.978,25.627-14.978,25.627S58.89,53.583,58.89,45.354a14.978,14.978,0,0,1,29.927,0Z" transform="translate(108.803 57.331)" opacity="0.33" fill="url(#linear-gradient-6)"/>
    <path id="Path_1887" data-name="Path 1887" d="M74.61,40.25a6.35,6.35,0,1,1-6.35-6.35,6.35,6.35,0,0,1,6.35,6.35Z" transform="translate(114.382 62.635)" opacity="0.33" fill="url(#linear-gradient-7)"/>
    <path id="Path_1888" data-name="Path 1888" d="M74.766,137.58a29.927,29.927,0,1,1,11.845-40.6,29.927,29.927,0,0,1-11.845,40.6ZM48.854,90.369a23.919,23.919,0,1,0,18.21-1.993,23.919,23.919,0,0,0-18.21,1.993Z" transform="translate(56.223 150.418)" fill="#fbc96b"/>
    <path id="Path_1889" data-name="Path 1889" d="M61.636,101.027l-11.39,6.236a2.847,2.847,0,0,1-4.1-1.2l-9.112-16.6A2.994,2.994,0,1,1,42.3,86.619l7.66,13.981L58.7,95.816a2.982,2.982,0,0,1,2.847,5.239Z" transform="translate(67.759 157.129)" fill="#fbc96b"/>
  </g>
</svg>
