<svg xmlns="http://www.w3.org/2000/svg" width="299.667" height="150.831" viewBox="0 0 299.667 150.831">
  <g id="Group_1892" data-name="Group 1892" transform="translate(-351.001 -4401)">
    <g id="Rectangle_564" data-name="Rectangle 564" transform="translate(351.001 4401)" fill="#fff" stroke="#000" stroke-width="5">
      <rect width="239" height="140" rx="15" stroke="none"/>
      <rect x="2.5" y="2.5" width="234" height="135" rx="12.5" fill="none"/>
    </g>
    <line id="Line_61" data-name="Line 61" x2="230" transform="translate(355.501 4501.5)" fill="none" stroke="#1ca6d9" stroke-width="4"/>
    <circle id="Ellipse_33" data-name="Ellipse 33" cx="6.5" cy="6.5" r="6.5" transform="translate(608.681 4464.523) rotate(14)" fill="#f52121"/>
    <g id="Group_1859" data-name="Group 1859" transform="matrix(-0.719, 0.695, -0.695, -0.719, 651.375, 4513.861)">
      <g id="Group_1859-2" data-name="Group 1859" transform="translate(0.5 0.5)">
        <path id="Path_1839" data-name="Path 1839" d="M54.852,12.913A20.4,20.4,0,0,0,42.789.841a4.226,4.226,0,0,0-4.428.648L1.507,38.331a4.107,4.107,0,0,0-.647,4.43C2.442,46.752,8.887,53.324,12.9,54.8a4.086,4.086,0,0,0,4.445-.642L54.2,17.318A4.187,4.187,0,0,0,54.852,12.913Zm-1.437,3.625L16.56,53.38a3.024,3.024,0,0,1-3.254.4C9.539,52.384,3.351,46.046,1.884,42.35a3.048,3.048,0,0,1,.4-3.238L39.142,2.27a3.155,3.155,0,0,1,3.251-.4,19.277,19.277,0,0,1,11.416,11.4A3.177,3.177,0,0,1,53.416,16.538Zm-33,11.066a.552.552,0,0,0-.6.55v4.508a.552.552,0,0,0,.447.542,2.888,2.888,0,0,1,2.28,2.28.551.551,0,0,0,.542.447h4.508a.545.545,0,0,0,.552-.6A8.456,8.456,0,0,0,20.414,27.6Zm3.1,7.222a4,4,0,0,0-2.594-2.591V28.779a7.339,7.339,0,0,1,6.049,6.047Zm-5.2,4.889a2.89,2.89,0,0,1-2.281-2.28.551.551,0,0,0-.542-.447H10.978a.542.542,0,0,0-.551.6,8.454,8.454,0,0,0,7.73,7.729.552.552,0,0,0,.6-.55V40.257A.551.551,0,0,0,18.309,39.715Zm-.657,4.424A7.337,7.337,0,0,1,11.6,38.092h3.455a3.991,3.991,0,0,0,2.594,2.592ZM10.977,35.93h4.509a.552.552,0,0,0,.542-.447,2.89,2.89,0,0,1,2.281-2.28.551.551,0,0,0,.447-.541V28.155a.544.544,0,0,0-.6-.551,8.456,8.456,0,0,0-7.732,7.728A.552.552,0,0,0,10.977,35.93Zm6.675-7.151v3.455a4,4,0,0,0-2.594,2.592H11.6A7.34,7.34,0,0,1,17.652,28.779Zm9.941,8.21H23.084a.551.551,0,0,0-.542.447,2.887,2.887,0,0,1-2.28,2.28.55.55,0,0,0-.447.541v4.507a.542.542,0,0,0,.6.55,8.455,8.455,0,0,0,7.732-7.728A.553.553,0,0,0,27.593,36.989ZM20.919,44.14V40.686a4,4,0,0,0,2.594-2.593h3.456A7.338,7.338,0,0,1,20.919,44.14ZM5.5,39.2a2.346,2.346,0,1,0,2.347,2.346A2.347,2.347,0,0,0,5.5,39.2Zm0,3.588a1.242,1.242,0,1,1,1.243-1.242A1.242,1.242,0,0,1,5.5,42.789Zm4.3.711a2.346,2.346,0,1,0,2.347,2.346A2.347,2.347,0,0,0,9.8,43.5Zm0,3.589a1.242,1.242,0,1,1,1.243-1.243A1.241,1.241,0,0,1,9.8,47.089Zm4.3.711a2.346,2.346,0,1,0,2.347,2.346A2.346,2.346,0,0,0,14.1,47.8Zm0,3.589a1.243,1.243,0,1,1,1.242-1.242A1.244,1.244,0,0,1,14.1,51.389Zm10.45-26.541A2.346,2.346,0,1,0,22.206,22.5,2.347,2.347,0,0,0,24.553,24.849Zm0-3.589A1.242,1.242,0,1,1,23.311,22.5,1.242,1.242,0,0,1,24.553,21.26Zm4.3,3.2A2.346,2.346,0,1,0,31.2,26.8,2.347,2.347,0,0,0,28.854,24.455Zm0,3.589A1.242,1.242,0,1,1,30.1,26.8,1.243,1.243,0,0,1,28.854,28.044Zm4.3.71A2.346,2.346,0,1,0,35.5,31.1,2.346,2.346,0,0,0,33.155,28.755Zm0,3.588A1.242,1.242,0,1,1,34.4,31.1,1.242,1.242,0,0,1,33.154,32.342Zm-4.3-11.793A2.346,2.346,0,1,0,26.508,18.2,2.346,2.346,0,0,0,28.855,20.549Zm0-3.588A1.242,1.242,0,1,1,27.613,18.2,1.243,1.243,0,0,1,28.855,16.961Zm4.3,3.2A2.346,2.346,0,1,0,35.5,22.5,2.347,2.347,0,0,0,33.155,20.156Zm0,3.588A1.242,1.242,0,1,1,34.4,22.5,1.242,1.242,0,0,1,33.155,23.745Zm4.3.711A2.346,2.346,0,1,0,39.8,26.8,2.346,2.346,0,0,0,37.456,24.455Zm0,3.588A1.242,1.242,0,1,1,38.7,26.8,1.241,1.241,0,0,1,37.456,28.044Zm-4.3-11.793A2.346,2.346,0,1,0,30.808,13.9,2.347,2.347,0,0,0,33.155,16.251Zm0-3.589A1.242,1.242,0,1,1,31.913,13.9,1.242,1.242,0,0,1,33.155,12.661Zm4.3,7.888A2.346,2.346,0,1,0,35.109,18.2,2.346,2.346,0,0,0,37.456,20.549Zm0-3.588A1.242,1.242,0,1,1,36.213,18.2,1.242,1.242,0,0,1,37.456,16.961Zm4.3,3.2A2.346,2.346,0,1,0,44.1,22.5,2.345,2.345,0,0,0,41.757,20.156Zm0,3.588A1.242,1.242,0,1,1,43,22.5,1.241,1.241,0,0,1,41.756,23.744Zm-4.3-11.793A2.346,2.346,0,1,0,35.108,9.6,2.346,2.346,0,0,0,37.456,11.95Zm0-3.589A1.242,1.242,0,1,1,36.214,9.6,1.242,1.242,0,0,1,37.456,8.362Zm4.3-.711A2.346,2.346,0,1,0,39.41,5.3,2.346,2.346,0,0,0,41.757,7.651Zm0-3.589A1.242,1.242,0,1,1,40.514,5.3,1.243,1.243,0,0,1,41.757,4.061Zm0,12.189A2.346,2.346,0,1,0,39.41,13.9,2.348,2.348,0,0,0,41.757,16.25Zm0-3.589A1.242,1.242,0,1,1,40.514,13.9,1.241,1.241,0,0,1,41.756,12.661Zm4.3,3.2A2.346,2.346,0,1,0,48.4,18.2,2.347,2.347,0,0,0,46.058,15.856Zm0,3.588A1.242,1.242,0,1,1,47.3,18.2,1.242,1.242,0,0,1,46.058,19.444Zm4.3-7.888A2.346,2.346,0,1,0,52.706,13.9,2.347,2.347,0,0,0,50.357,11.557Zm0,3.588A1.242,1.242,0,1,1,51.6,13.9,1.242,1.242,0,0,1,50.358,15.145ZM22.046,36.452a2.761,2.761,0,1,0-2.761,2.761A2.76,2.76,0,0,0,22.046,36.452Zm-2.761,1.657a1.656,1.656,0,1,1,1.657-1.657A1.657,1.657,0,0,1,19.284,38.109Z" transform="translate(-0.5 -0.5)"/>
      </g>
    </g>
  </g>
</svg>
