<svg xmlns="http://www.w3.org/2000/svg" width="35.788" height="59.9" viewBox="0 0 35.788 59.9">
  <g id="Group_1844" data-name="Group 1844" transform="translate(-21.7 -2.6)">
    <path id="Path_1823" data-name="Path 1823" d="M52.376,8.091H46.316V3.673A1.064,1.064,0,0,0,45.243,2.6h-11.3a1.064,1.064,0,0,0-1.073,1.073V8.091H26.813A5.091,5.091,0,0,0,21.7,13.2V57.387A5.091,5.091,0,0,0,26.813,62.5H52.376a5.091,5.091,0,0,0,5.113-5.113V13.2A5.091,5.091,0,0,0,52.376,8.091Zm.316,49.3a.3.3,0,0,1-.316.316H26.75a.3.3,0,0,1-.316-.316V13.2a.3.3,0,0,1,.316-.316H52.313a.3.3,0,0,1,.316.316V57.387Z" fill="currentColor"/>
    <path id="Path_1824" data-name="Path 1824" d="M53.682,73.3H34.368a.566.566,0,0,0-.568.568v6.5a.566.566,0,0,0,.568.568H53.746a.566.566,0,0,0,.568-.568v-6.5A.671.671,0,0,0,53.682,73.3Z" transform="translate(-4.463 -26.075)" fill="currentColor"/>
    <path id="Path_1825" data-name="Path 1825" d="M53.682,56.7H34.368a.566.566,0,0,0-.568.568v6.5a.566.566,0,0,0,.568.568H53.746a.566.566,0,0,0,.568-.568v-6.5A.671.671,0,0,0,53.682,56.7Z" transform="translate(-4.463 -19.953)" fill="currentColor"/>
    <path id="Path_1826" data-name="Path 1826" d="M53.682,40.1H34.368a.566.566,0,0,0-.568.568v6.5a.566.566,0,0,0,.568.568H53.746a.566.566,0,0,0,.568-.568v-6.5A.671.671,0,0,0,53.682,40.1Z" transform="translate(-4.463 -13.83)" fill="currentColor"/>
  </g>
</svg>
