<svg xmlns="http://www.w3.org/2000/svg" width="66.119" height="119.534" viewBox="0 0 66.119 119.534" fill="currentColor">
  <g id="Group_1890" data-name="Group 1890" transform="translate(-1694.654 -3147)">
    <g id="Group_1883" data-name="Group 1883" transform="translate(1694.654 3147)">
      <g id="Group_1889" data-name="Group 1889" transform="translate(0 0)">
        <g id="Group_1886" data-name="Group 1886">
          <g id="Group_1883-2" data-name="Group 1883">
            <path id="Path_1969" data-name="Path 1969" d="M178.977,138.08h-42.53a11.757,11.757,0,0,1-11.792-11.694V30.241a11.757,11.757,0,0,1,11.792-11.695h42.53a11.759,11.759,0,0,1,11.8,11.695v96.145A11.759,11.759,0,0,1,178.977,138.08ZM136.446,21.566a8.733,8.733,0,0,0-8.772,8.674v96.145a8.733,8.733,0,0,0,8.772,8.674h42.53a8.736,8.736,0,0,0,8.777-8.674V30.241a8.736,8.736,0,0,0-8.777-8.674h-42.53Z" transform="translate(-124.654 -18.546)"/>
          </g>
          <g id="Group_1884" data-name="Group 1884" transform="translate(24.173 9.108)">
            <path id="Path_1970" data-name="Path 1970" d="M238.957,57.752H222.2a1.51,1.51,0,1,1,0-3.02h16.753a1.51,1.51,0,0,1,0,3.02Z" transform="translate(-220.694 -54.732)"/>
          </g>
          <g id="Group_1885" data-name="Group 1885" transform="translate(26.738 99.728)">
            <path id="Path_1971" data-name="Path 1971" d="M237.2,427.5a6.367,6.367,0,1,1,6.319-6.37A6.352,6.352,0,0,1,237.2,427.5Zm0-9.714a3.347,3.347,0,1,0,3.3,3.344A3.326,3.326,0,0,0,237.2,417.784Z" transform="translate(-230.884 -414.763)"/>
          </g>
        </g>
        <g id="Group_1888" data-name="Group 1888" transform="translate(14.168 33.113)">
          <g id="Group_1887" data-name="Group 1887">
            <path id="Path_1972" data-name="Path 1972" d="M200.414,204.419a1.258,1.258,0,0,1-1.066-.59l-3.105-4.954c-.136-.224-.182-.3-.325-.521l-11.941-18.988a1.282,1.282,0,0,1-.108-.216,18.8,18.8,0,0,1-2.926-10.05,19.171,19.171,0,0,1,38.341,0,18.752,18.752,0,0,1-2.933,10.059l-.007.016a1.328,1.328,0,0,1-.092.185l-14.762,24.451a1.259,1.259,0,0,1-1.066.608Zm-14.237-26.284L198.04,197c.151.234.2.318.354.568l.089.147,1.91,3.044,13.656-22.619a2,2,0,0,1,.172-.322,16.242,16.242,0,0,0,2.546-8.719,16.654,16.654,0,0,0-33.307,0A16.291,16.291,0,0,0,186,177.819,1.942,1.942,0,0,1,186.176,178.135Zm13.967-.515a8.52,8.52,0,1,1,8.593-8.52A8.565,8.565,0,0,1,200.144,177.62Zm0-14.522a6,6,0,1,0,6.076,6A6.045,6.045,0,0,0,200.144,163.1Z" transform="translate(-180.943 -150.105)"/>
          </g>
        </g>
      </g>
    </g>
  </g>
</svg>
