<svg xmlns="http://www.w3.org/2000/svg" width="110.93" height="115" viewBox="0 0 110.93 115" fill="currentColor">
  <g id="Group_1891" data-name="Group 1891" transform="translate(-18.602 -17.45)">
    <circle id="Ellipse_51" data-name="Ellipse 51" cx="1.385" cy="1.385" r="1.385" transform="translate(76.319 101.313)" fill="none" stroke="#000" stroke-miterlimit="10" stroke-width="1"/>
    <path id="Path_1973" data-name="Path 1973" d="M129.325,91.043v-.018c-.053-.265-6.66-44.763-6.66-44.781-1.254-7.949-7.172-13.673-13.2-12.7a8.325,8.325,0,0,0-1.608.442V25.505a8.078,8.078,0,0,0-8.073-8.055H55.627a8.078,8.078,0,0,0-8.073,8.055V37.359L33,27.5A9.154,9.154,0,0,0,22.522,42.517L37.732,52.8a9.078,9.078,0,0,0-6.942,10.458,9.117,9.117,0,0,0,3.763,5.9l2.6,1.82a9.063,9.063,0,0,0-6.359,10.3,9.155,9.155,0,0,0,3.763,5.918l2.031,1.413c-.035.194-.053.389-.071.583a8.846,8.846,0,0,0-4.2,3.286,9.143,9.143,0,0,0,2.243,12.737l10.882,7.614a8.893,8.893,0,0,0,2.915,1.325c5.423,4.911,12.737,9.875,22.1,15.033a28.025,28.025,0,0,0,13.443,3.268,34.334,34.334,0,0,0,16.87-4.522C110.212,122.575,131.869,108.249,129.325,91.043ZM51.087,25.505a4.535,4.535,0,0,1,4.54-4.522H99.789a4.546,4.546,0,0,1,4.54,4.522v6.112H51.087V25.505Zm0,9.645h53.243V91.485H58.753a9.126,9.126,0,0,0-2.844-11.677l-2.6-1.82a9.109,9.109,0,0,0,2.6-16.2L51.087,58.4V35.15Zm4.823,62.676-2.6-1.82a9.679,9.679,0,0,0,2.279-.989h48.738v12.4a4.55,4.55,0,0,1-4.54,4.54H56.969a10.185,10.185,0,0,0,1.2-1.4A9.168,9.168,0,0,0,55.909,97.826ZM24.536,39.6a5.52,5.52,0,0,1-2.314-3.621,5.621,5.621,0,0,1,.936-4.2,5.562,5.562,0,0,1,3.621-2.3,6.239,6.239,0,0,1,.989-.088A5.659,5.659,0,0,1,31,30.416l16.552,11.2V55.165ZM36.584,66.259a5.588,5.588,0,0,1-1.378-7.808,5.63,5.63,0,0,1,7.808-1.378l10.882,7.6a5.643,5.643,0,0,1,2.3,3.639,5.573,5.573,0,0,1-4.54,6.483,5.444,5.444,0,0,1-4.2-.919Zm-2.314,14.4a5.619,5.619,0,0,1,8.744-5.565L53.9,82.7a5.619,5.619,0,0,1-6.448,9.2L36.584,84.295A5.667,5.667,0,0,1,34.269,80.656Zm13.178,29.271-10.864-7.614a5.607,5.607,0,0,1,2.243-10.122,6.429,6.429,0,0,1,.989-.088,5.58,5.58,0,0,1,3.2,1.007L53.9,100.723a5.619,5.619,0,0,1-6.448,9.2ZM99.03,124.872c-8.568,4.858-19.361,5.353-26.869,1.2a132.448,132.448,0,0,1-16.605-10.581H99.789a8.082,8.082,0,0,0,8.073-8.073V37.977a5.2,5.2,0,0,1,2.173-.954c3.992-.618,8.2,3.833,9.133,9.751,5.882,39.588,6.571,44.216,6.66,44.781a16.16,16.16,0,0,1,.159,2.243C125.987,108.372,105.548,121.162,99.03,124.872Z" transform="translate(0 0)"/>
  </g>
</svg>
