<svg xmlns="http://www.w3.org/2000/svg" width="127.229" height="115.128" viewBox="0 0 127.229 115.128" fill="currentColor">
  <g id="Group_1881" data-name="Group 1881" transform="translate(-2.988 -6.064)">
    <path id="Path_1935" data-name="Path 1935" d="M130.16,81.543a1.411,1.411,0,0,0-1.411-1.411h-.169a13.362,13.362,0,0,1-9.355-3.612,9.157,9.157,0,0,1-2.822-6.49c0-5.644,5.46-10.229,12.148-10.272h.028a1.411,1.411,0,0,0,1.411-1.411v-8h0V43.293a7.492,7.492,0,0,0-2.243-5.333,7.718,7.718,0,0,0-5.376-2.2l-16.931.085c-.536-4.233,1.891-8.861,6.18-11.584h0a1.411,1.411,0,0,0,.339-.3h0a1.566,1.566,0,0,0,.24-.423s0-.1,0-.155a1.1,1.1,0,0,0,0-.31.691.691,0,0,0,0-.169,2.189,2.189,0,0,0,0-.3,1.579,1.579,0,0,0-.071-.183v-.141l-8.071-12.7A7.591,7.591,0,0,0,93.588,7.243L47.929,36.069l-28.642.155a7.563,7.563,0,0,0-7.549,7.6v7.055h0v8.071L6.5,62.411A7.591,7.591,0,0,0,4.162,72.866L11.95,85.141v4.12h0v7.718a7.534,7.534,0,0,0,7.549,7.549h4.628l8.508,13.15A7.591,7.591,0,0,0,43.09,120.02l24.819-15.774,54.759-.268a7.619,7.619,0,0,0,7.549-7.619ZM95.041,9.515a4.783,4.783,0,0,1,6.575,1.411l2.977,4.825L85.263,28.041a1.411,1.411,0,1,0,1.51,2.384l19.372-12.289,2.822,4.444c-.31.24-.621.48-.917.734l-.282.268-.578.536-.325.339-.466.508-.325.381-.409.508-.3.409-.367.522-.254.423c-.113.169-.226.353-.325.536l-.24.437c-.1.183-.183.367-.268.55l-.212.451-.226.564-.169.451a2.388,2.388,0,0,1-.183.593,4.233,4.233,0,0,0-.141.451,2.263,2.263,0,0,1-.141.593l-.085.451a1.31,1.31,0,0,1-.1.607c-.1.2,0,.3,0,.451v2.116a2.818,2.818,0,0,1,0,.325l-49.383.254ZM6.546,71.3a4.769,4.769,0,0,1,1.411-6.561l3.824-2.427.085,17.467ZM41.58,117.635a4.755,4.755,0,0,1-6.561-1.411l-7.436-11.711,35.048-.183Zm81.1-16.48-25.242.127a1.258,1.258,0,0,0-1.4,0l-76.431.4h0a4.713,4.713,0,0,1-3.344-1.411,4.656,4.656,0,0,1-1.411-3.358V90.588L32.028,90.5a1.411,1.411,0,1,0,0-2.822h0l-17.242.127L14.6,52.295l74.47-.4a1.411,1.411,0,1,0,0-2.822h0l-74.527.381V43.815a4.769,4.769,0,0,1,4.741-4.769l29.023-.155h0l74-.381a4.628,4.628,0,0,1,3.443,1.326,4.727,4.727,0,0,1,1.411,3.344v5.644l-22.928.113a1.411,1.411,0,1,0,0,2.822h0l22.928-.056v5.277c-7.69.649-13.7,6.25-13.658,13.037a12.078,12.078,0,0,0,3.683,8.466,16.043,16.043,0,0,0,10.117,4.4V87.2l-22.928.113a1.411,1.411,0,1,0,0,2.822h0l22.928-.113v6.335a4.783,4.783,0,0,1-4.628,4.8Z" transform="translate(0 0)"/>
    <path id="Path_1936" data-name="Path 1936" d="M66.927,80.42H55.851a1.411,1.411,0,1,0,0,2.822H66.927a1.411,1.411,0,1,0,0-2.822Z" transform="translate(21.144 30.556)"/>
    <path id="Path_1937" data-name="Path 1937" d="M97.591,80.42h0l-30.42.155a1.411,1.411,0,1,0,0,2.822h0l30.42-.155a1.411,1.411,0,1,0,0-2.822Z" transform="translate(25.796 30.556)"/>
    <path id="Path_1938" data-name="Path 1938" d="M25.3,23.482H31.5a1.411,1.411,0,1,0,0-2.822H25.3a1.411,1.411,0,1,0,0,2.822Z" transform="translate(8.589 5.998)"/>
    <path id="Path_1939" data-name="Path 1939" d="M5.313,38.792h0a1.411,1.411,0,0,0,1.411-1.411V28.62a4.727,4.727,0,0,1,1.411-3.372,4.67,4.67,0,0,1,3.344-1.411L27,23.752a1.411,1.411,0,1,0,0-2.822h0l-15.591.1A7.591,7.591,0,0,0,3.86,28.648V37.41a1.411,1.411,0,0,0,1.453,1.383Z" transform="translate(0.358 6.109)"/>
    <path id="Path_1940" data-name="Path 1940" d="M78.923,63.72h0l-49.242.254a1.411,1.411,0,1,0,0,2.822h0l49.242-.254a1.411,1.411,0,1,0,0-2.822Z" transform="translate(10.389 23.693)"/>
    <path id="Path_1941" data-name="Path 1941" d="M69.651,36.232a1.411,1.411,0,1,0-1.411-1.411A1.411,1.411,0,0,0,69.651,36.232Z" transform="translate(26.815 11.237)"/>
    <path id="Path_1942" data-name="Path 1942" d="M69.7,46.222a1.411,1.411,0,1,0-1.411-1.411A1.411,1.411,0,0,0,69.7,46.222Z" transform="translate(26.836 15.343)"/>
    <path id="Path_1943" data-name="Path 1943" d="M69.781,61.222a1.411,1.411,0,1,0-1.411-1.411A1.411,1.411,0,0,0,69.781,61.222Z" transform="translate(26.869 21.507)"/>
    <path id="Path_1944" data-name="Path 1944" d="M69.741,56.222h0a1.411,1.411,0,1,0-1.411-1.411A1.411,1.411,0,0,0,69.741,56.222Z" transform="translate(26.852 19.452)"/>
    <path id="Path_1945" data-name="Path 1945" d="M69.8,66.222a1.411,1.411,0,1,0-1.411-1.411A1.411,1.411,0,0,0,69.8,66.222Z" transform="translate(26.877 23.561)"/>
    <path id="Path_1946" data-name="Path 1946" d="M69.821,68.4a1.411,1.411,0,1,0,0,2.822h0a1.411,1.411,0,1,0,0-2.822Z" transform="translate(26.885 25.616)"/>
    <path id="Path_1947" data-name="Path 1947" d="M69.721,51.232a1.411,1.411,0,1,0-1.411-1.411A1.411,1.411,0,0,0,69.721,51.232Z" transform="translate(26.844 17.401)"/>
    <path id="Path_1948" data-name="Path 1948" d="M69.671,41.222a1.411,1.411,0,1,0-1.411-1.411A1.411,1.411,0,0,0,69.671,41.222Z" transform="translate(26.824 13.288)"/>
    <path id="Path_1949" data-name="Path 1949" d="M57.038,25.234a1.421,1.421,0,0,0,.762,2.61,1.326,1.326,0,0,0,.748-.226,1.411,1.411,0,1,0-1.51-2.384Z" transform="translate(21.946 7.787)"/>
    <path id="Path_1950" data-name="Path 1950" d="M54.359,21.064a1.416,1.416,0,0,0,.762,2.61,1.326,1.326,0,0,0,.748-.226,1.411,1.411,0,1,0-1.51-2.384Z" transform="translate(20.844 6.074)"/>
    <path id="Path_1951" data-name="Path 1951" d="M47.033,46.957h0l17.454-.085a1.411,1.411,0,1,0,0-2.822h0l-17.425.085a1.411,1.411,0,1,0,0,2.822Z" transform="translate(17.532 15.61)"/>
    <path id="Path_1952" data-name="Path 1952" d="M46.761,52.967h0l17.425-.085a1.411,1.411,0,1,0,0-2.822h0l-17.425.085a1.411,1.411,0,1,0,0,2.822Z" transform="translate(17.409 18.08)"/>
    <path id="Path_1953" data-name="Path 1953" d="M58.158,56.09H46.941a1.411,1.411,0,1,0,0,2.822H58.229a1.411,1.411,0,1,0,0-2.822Z" transform="translate(17.483 20.557)"/>
    <path id="Path_1954" data-name="Path 1954" d="M76.931,51.332h0a1.411,1.411,0,0,0,1.411-1.411v-3.57a1.411,1.411,0,0,0-1.411-1.411h0a1.411,1.411,0,0,0-1.411,1.411v3.57A1.411,1.411,0,0,0,76.931,51.332Z" transform="translate(29.807 15.976)"/>
    <path id="Path_1955" data-name="Path 1955" d="M76.941,50.87h0a1.411,1.411,0,0,0-1.411,1.411v8.1a1.411,1.411,0,0,0,1.411,1.411h0a1.411,1.411,0,0,0,1.411-1.411v-8.1A1.411,1.411,0,0,0,76.941,50.87Z" transform="translate(29.811 18.412)"/>
    <path id="Path_1956" data-name="Path 1956" d="M40,66.7a3.57,3.57,0,0,0,1.411-3.541l-.748-4.713a.818.818,0,0,1,.226-.705L44.3,54.383a3.584,3.584,0,0,0,.9-3.711,3.626,3.626,0,0,0-2.935-2.455l-4.741-.663a.818.818,0,0,1-.593-.437L34.8,42.884a3.626,3.626,0,0,0-3.245-2h0a3.626,3.626,0,0,0-3.245,2.032l-2.1,4.233a.8.8,0,0,1-.593.451l-4.727.691A3.626,3.626,0,0,0,18.9,54.481L22.317,57.8a.818.818,0,0,1,.226.705l-.79,4.727a3.618,3.618,0,0,0,5.263,3.81L31.248,64.8a.748.748,0,0,1,.734,0l4.233,2.215A3.612,3.612,0,0,0,40,66.7ZM29.879,62.284l-4.233,2.243a.79.79,0,0,1-.847,0,.776.776,0,0,1-.325-.776l.79-4.727a3.612,3.612,0,0,0-1.044-3.189l-3.443-3.33a.748.748,0,0,1-.2-.818.776.776,0,0,1,.635-.55l4.727-.705a3.6,3.6,0,0,0,2.723-1.989l2.1-4.233a.762.762,0,0,1,.72-.451.776.776,0,0,1,.72.451l2.131,4.233a3.64,3.64,0,0,0,2.723,1.975l4.741.663a.79.79,0,0,1,.649.536.832.832,0,0,1-.2.832l-3.4,3.273a3.57,3.57,0,0,0-1.016,3.2l.8,4.7a.762.762,0,0,1-.31.79.79.79,0,0,1-.847,0l-4.233-2.2a3.654,3.654,0,0,0-3.372.071Z" transform="translate(6.085 14.307)"/>
  </g>
</svg>
