<svg xmlns="http://www.w3.org/2000/svg" width="114.862" height="115" viewBox="0 0 114.862 115" fill="currentColor">
  <g id="Group_1878" data-name="Group 1878" transform="translate(-212 -3037)">
    <path id="Path_1926" data-name="Path 1926" d="M46.465,24.332a1.425,1.425,0,0,0,1.405-1.2l1.844-11.538a1.425,1.425,0,0,0-2.814-.452L45.055,22.681a1.425,1.425,0,0,0,1.183,1.633A1.375,1.375,0,0,0,46.465,24.332Z" transform="translate(217.285 3027.057)"/>
    <path id="Path_1927" data-name="Path 1927" d="M35.66,25.366a1.474,1.474,0,0,0,.5-.09,1.426,1.426,0,0,0,.832-1.835L32.883,12.5a1.425,1.425,0,1,0-2.668,1l4.111,10.937A1.426,1.426,0,0,0,35.66,25.366Z" transform="translate(210.784 3027.752)"/>
    <path id="Path_1928" data-name="Path 1928" d="M27.264,31.341a1.425,1.425,0,0,0,.912-2.521l-8.987-7.466a1.425,1.425,0,0,0-1.821,2.193l8.987,7.466A1.416,1.416,0,0,0,27.264,31.341Z" transform="translate(204.913 3031.767)"/>
    <path id="Path_1929" data-name="Path 1929" d="M10.022,36.983a1.425,1.425,0,0,0,1.156,1.65l11.505,2.036a1.364,1.364,0,0,0,.249.023,1.424,1.424,0,0,0,.247-2.827L11.673,35.828A1.414,1.414,0,0,0,10.022,36.983Z" transform="translate(202 3038.339)"/>
    <path id="Path_1930" data-name="Path 1930" d="M23.314,49.365l-11,3.929a1.425,1.425,0,0,0,.48,2.766,1.407,1.407,0,0,0,.479-.084l11-3.929a1.424,1.424,0,1,0-.959-2.682Z" transform="translate(202.58 3044.226)"/>
    <path id="Path_1931" data-name="Path 1931" d="M63.86,37.075a1.425,1.425,0,0,0,1.358.99A1.441,1.441,0,0,0,65.653,38l11.128-3.56a1.424,1.424,0,1,0-.868-2.713l-11.128,3.56A1.425,1.425,0,0,0,63.86,37.075Z" transform="translate(225.523 3036.533)"/>
    <path id="Path_1932" data-name="Path 1932" d="M65.564,18.39l-7.906,8.6a1.426,1.426,0,0,0,2.1,1.929l7.906-8.6a1.426,1.426,0,0,0-2.1-1.929Z" transform="translate(222.658 3030.451)"/>
    <path id="Path_1933" data-name="Path 1933" d="M110.495,80.18A24.125,24.125,0,0,0,87.012,50.594a24.352,24.352,0,0,0-3.74.289A26.893,26.893,0,1,0,32.75,63.349a24.092,24.092,0,0,0-9.976,17.372,19.85,19.85,0,0,0,5.941,38.363,1.364,1.364,0,0,0,.309.033l.484.007a4.127,4.127,0,0,0,.727-.007l74.473.007c.108.007.214.014.324.014s.217-.007.4-.022h.415a1.488,1.488,0,0,0,.312-.035,19.855,19.855,0,0,0,4.335-38.9ZM32.654,46.758a24.026,24.026,0,0,1,47.737,4.771A23.969,23.969,0,0,0,64.36,66.516a23.966,23.966,0,0,0-29.179-4.7A24.106,24.106,0,0,1,32.654,46.758Zm73.13,69.465a1.48,1.48,0,0,0-.181.02l-.459.014-.514-.014H29.262a1.416,1.416,0,0,0-.175-.019,16.974,16.974,0,0,1-4.505-33.094,1.436,1.436,0,0,0,.989-1.291A21.188,21.188,0,0,1,63.817,70.36a1.435,1.435,0,0,0,2.551-.523,21.226,21.226,0,1,1,40.989,10.982,1.439,1.439,0,0,0,1.09,1.819,16.977,16.977,0,0,1-2.663,33.586Z" transform="translate(202 3032.86)"/>
  </g>
</svg>
