<svg xmlns="http://www.w3.org/2000/svg" width="130.133" height="115" viewBox="0 0 130.133 115" fill="currentColor">
  <g id="Group_1880" data-name="Group 1880" transform="translate(-7 -964.362)">
    <path id="Path_1934" data-name="Path 1934" d="M76.605,12A18.2,18.2,0,0,0,58.447,30.158V41.507a14.3,14.3,0,0,0-5.958,9.836H31.211A18.2,18.2,0,0,0,13.053,69.5V80.9a13.152,13.152,0,0,0-4.492,5.06A14.6,14.6,0,0,0,7,92.2v31.776a3,3,0,0,0,.8,2.222,3,3,0,0,0,2.222.8h9.079a2.784,2.784,0,0,0,3.026-3.026v-9.079H76.605v9.079A2.784,2.784,0,0,0,79.632,127h9.079a2.784,2.784,0,0,0,3.026-3.026V92.2a14.6,14.6,0,0,0-1.56-6.242,13.152,13.152,0,0,0-4.492-5.06V75.553H122v9.079a2.784,2.784,0,0,0,3.026,3.026h9.079a2.784,2.784,0,0,0,3.026-3.026v-22.7a1.514,1.514,0,1,0-3.026,0V72.526H109.895V64.961a1.513,1.513,0,0,0-1.513-1.513H84.644A18.234,18.234,0,0,0,67.526,51.342H55.563c.483-2.59,2.139-6.154,5.107-7.755a1.513,1.513,0,0,0,.8-1.324V30.158A15.132,15.132,0,0,1,76.605,15.026h36.316a15.132,15.132,0,0,1,15.132,15.132V42.263a1.513,1.513,0,0,0,.8,1.324,9.665,9.665,0,0,1,3.972,4.35,12.238,12.238,0,0,1,1.277,4.918,1.513,1.513,0,1,0,3.026,0,14.6,14.6,0,0,0-1.561-6.242,13.245,13.245,0,0,0-4.492-5.06v-11.4A18.2,18.2,0,0,0,112.921,12Zm3.026,10.592a12.1,12.1,0,0,0-7.471,2.033,8.572,8.572,0,0,0-3.121,7.046v7.566a1.513,1.513,0,0,0,1.939,1.419c6.939-2.085,13.852-2.932,23.785-2.932s16.846.847,23.785,2.932a1.513,1.513,0,0,0,1.939-1.419V31.671a8.572,8.572,0,0,0-3.121-7.046,12.1,12.1,0,0,0-7.471-2.033H79.632Zm0,3.026h30.263a9.348,9.348,0,0,1,5.627,1.419c1.218.927,1.939,2.274,1.939,4.634v5.674a83.518,83.518,0,0,0-22.7-2.648,83.518,83.518,0,0,0-22.7,2.648V31.671c0-2.36.721-3.707,1.939-4.634A9.348,9.348,0,0,1,79.632,25.618Zm39.342,22.7a6.053,6.053,0,1,0,6.053,6.053A6.076,6.076,0,0,0,118.974,48.316Zm0,3.026a3.026,3.026,0,1,1-3.026,3.026A3,3,0,0,1,118.974,51.342ZM31.211,54.368H67.526A15.131,15.131,0,0,1,82.658,69.5V81.605a1.513,1.513,0,0,0,.8,1.324,9.775,9.775,0,0,1,3.972,4.4,12.047,12.047,0,0,1,1.277,4.87v19.671H64.5V104.3a1.513,1.513,0,0,0-1.513-1.513H35.75a1.379,1.379,0,0,0-1.513,1.513v7.566H10.026V92.2a12.047,12.047,0,0,1,1.277-4.87,9.775,9.775,0,0,1,3.972-4.4,1.513,1.513,0,0,0,.8-1.324V69.5A15.131,15.131,0,0,1,31.211,54.368Zm3.026,7.566a12.1,12.1,0,0,0-7.471,2.033,8.572,8.572,0,0,0-3.121,7.046v7.566A1.513,1.513,0,0,0,25.583,80c6.939-2.085,13.852-2.932,23.785-2.932S66.215,77.912,73.153,80a1.513,1.513,0,0,0,1.939-1.419V71.013a8.572,8.572,0,0,0-3.121-7.046A12.1,12.1,0,0,0,64.5,61.934H34.237Zm0,3.026H64.5a9.348,9.348,0,0,1,5.627,1.419c1.218.927,1.939,2.274,1.939,4.634v5.674a83.518,83.518,0,0,0-22.7-2.648,83.518,83.518,0,0,0-22.7,2.648V71.013c0-2.36.721-3.707,1.939-4.634A9.348,9.348,0,0,1,34.237,64.961ZM85.4,66.474h21.468v6.053H85.684V69.5A17.916,17.916,0,0,0,85.4,66.474Zm39.626,9.079h9.079v9.079h-9.079ZM25.158,87.658a6.053,6.053,0,1,0,6.053,6.053A6.076,6.076,0,0,0,25.158,87.658Zm48.421,0a6.053,6.053,0,1,0,6.053,6.053A6.076,6.076,0,0,0,73.579,87.658ZM25.158,90.684a3.026,3.026,0,1,1-3.026,3.026A3,3,0,0,1,25.158,90.684Zm48.421,0a3.026,3.026,0,1,1-3.026,3.026A3,3,0,0,1,73.579,90.684ZM37.263,105.816H61.474v6.053H37.263Zm-27.237,9.079h9.079v9.079H10.026Zm69.605,0h9.079v9.079H79.632Z" transform="translate(0 952.362)"/>
  </g>
</svg>
