<svg xmlns="http://www.w3.org/2000/svg" viewBox="0 0 32.873 50.115">
  <defs>
    <style>
      .cls-1 {
        fill: #b49151;
        fill-rule: evenodd;
      }
    </style>
  </defs>
  <path id="Path_1691" data-name="Path 1691" class="cls-1" d="M1.4,9.109C1.064,5.141,2.426,2.023,3.07-.085c2.767.922,6.823,4.451,7.145,4.729a13.332,13.332,0,0,1,12.43.029.28.28,0,0,1,.117-.059c.454-.4,4.407-3.821,7.13-4.714.659,2.181,2.094,5.4,1.64,9.531,1.376,2.2,2.752,6.091-2.02,9.736a13.015,13.015,0,0,1-12.137,2.416,4.1,4.1,0,0,0-.966-.2s-.161.044-.644.19A13.472,13.472,0,0,1,3.245,19.153C-1.557,15.39-.093,11.217,1.4,9.109Zm30.38,8.828v31.8a.278.278,0,0,1-.278.278h-.264a.278.278,0,0,1-.278-.278V18.9C31.18,18.684,31.488,18.3,31.78,17.937ZM7.491,37.424a.307.307,0,0,0-.1-.439,3.59,3.59,0,0,0-2.006-.644,2.307,2.307,0,0,0-2.372,2.328V42.8a.293.293,0,0,0,.322.322H3.8a.282.282,0,0,0,.307-.322V40.587a.282.282,0,0,1,.322-.307H6.5a.282.282,0,0,0,.307-.322v-.322a.289.289,0,0,0-.307-.322H4.431a.293.293,0,0,1-.322-.322v-.337a1.257,1.257,0,0,1,1.259-1.3,3.008,3.008,0,0,1,1.493.483.309.309,0,0,0,.439-.117Zm5.534,4.553a.288.288,0,0,0-.132-.425l-.337-.234a.275.275,0,0,0-.425.117,1.391,1.391,0,0,1-1.23.805,1.257,1.257,0,0,1-1.259-1.3V40.6a.289.289,0,0,1,.307-.322h1.464a.289.289,0,0,0,.322-.307V39.65a.293.293,0,0,0-.322-.322H9.951a.282.282,0,0,1-.307-.322v-.351a1.257,1.257,0,0,1,1.259-1.3,1.39,1.39,0,0,1,1.23.835.266.266,0,0,0,.425.073l.337-.249a.315.315,0,0,0,.088-.425,2.21,2.21,0,0,0-2.094-1.244,2.307,2.307,0,0,0-2.372,2.328v2.269a2.316,2.316,0,0,0,2.372,2.328A2.278,2.278,0,0,0,13.026,41.978Zm5.563.82v-.322a.289.289,0,0,0-.307-.322H15.807a.289.289,0,0,1-.322-.307V36.809a.289.289,0,0,0-.307-.322h-.469a.293.293,0,0,0-.322.322V42.49a.577.577,0,0,0,.63.63h3.25A.293.293,0,0,0,18.589,42.8Zm5.476-.015v-.307a.293.293,0,0,0-.322-.322H22.557a.293.293,0,0,1-.322-.322v-4.1a.293.293,0,0,1,.322-.322h.717a.293.293,0,0,0,.322-.322V36.78a.293.293,0,0,0-.322-.322H20.126a.293.293,0,0,0-.322.322v.307a.293.293,0,0,0,.322.322h.717a.282.282,0,0,1,.307.322v4.1a.289.289,0,0,1-.307.322H19.658a.293.293,0,0,0-.322.322v.307a.293.293,0,0,0,.322.322h4.1A.289.289,0,0,0,24.065,42.783ZM29.906,41.1c0-1.347-1.1-1.9-2.372-1.977,0,0-1.142-.044-1.142-.893,0-.307.264-.893,1.142-.893a1.414,1.414,0,0,1,.966.4.338.338,0,0,0,.439.044l.351-.249a.255.255,0,0,0,.044-.425,2.38,2.38,0,0,0-1.786-.776,1.994,1.994,0,0,0-2.211,1.889c0,1.083.805,1.815,2.211,1.889,0,0,1.259,0,1.259.981a1.129,1.129,0,0,1-1.259,1.127,1.86,1.86,0,0,1-1.464-.878.279.279,0,0,0-.41-.088l-.337.234a.294.294,0,0,0-.088.439,2.656,2.656,0,0,0,2.3,1.3A2.107,2.107,0,0,0,29.906,41.1ZM5.837,47.731V46.414a1.341,1.341,0,0,0-1.376-1.347,1.332,1.332,0,0,0-1.376,1.347v1.318a1.341,1.341,0,0,0,1.376,1.347A1.332,1.332,0,0,0,5.837,47.731Zm-.63,0a.733.733,0,1,1-1.464,0V46.414a.733.733,0,1,1,1.464,0Zm.176-3.338V44.2a.177.177,0,0,0-.19-.19H4.929a.177.177,0,0,0-.19.19v.19a.177.177,0,0,0,.19.19h.264A.177.177,0,0,0,5.383,44.393Zm-1.2,0V44.2a.177.177,0,0,0-.19-.19H3.729a.177.177,0,0,0-.19.19v.19a.177.177,0,0,0,.19.19h.264A.17.17,0,0,0,4.182,44.393ZM9.6,47.731V46.414A1.284,1.284,0,0,0,8.223,45.14H7.213a.332.332,0,0,0-.366.366v3.133a.332.332,0,0,0,.366.366h1.01A1.284,1.284,0,0,0,9.6,47.731Zm-.644,0a.7.7,0,0,1-.732.717H7.667a.177.177,0,0,1-.19-.19V45.872a.177.177,0,0,1,.19-.19h.556a.7.7,0,0,1,.732.717Zm4.392,0V45.316a.177.177,0,0,0-.19-.19h-.278a.177.177,0,0,0-.19.19v2.416a.733.733,0,1,1-1.464,0V45.316a.177.177,0,0,0-.19-.19h-.278a.177.177,0,0,0-.19.19v2.416a1.392,1.392,0,0,0,2.782,0Zm-.469-3.338V44.2a.177.177,0,0,0-.19-.19h-.264a.177.177,0,0,0-.19.19v.19a.177.177,0,0,0,.19.19h.264A.177.177,0,0,0,12.879,44.393Zm-1.186,0V44.2a.177.177,0,0,0-.19-.19h-.264a.177.177,0,0,0-.19.19v.19a.177.177,0,0,0,.19.19H11.5A.177.177,0,0,0,11.693,44.393Zm5.124,4.422v-.19a.177.177,0,0,0-.19-.19H15.192a.177.177,0,0,1-.19-.19V45.3a.177.177,0,0,0-.19-.19h-.278a.177.177,0,0,0-.19.19V48.61a.332.332,0,0,0,.366.366h1.9C16.759,49.005,16.817,48.932,16.817,48.815Zm3.089,0v-.19a.177.177,0,0,0-.19-.19H18.282a.177.177,0,0,1-.19-.19V45.3a.177.177,0,0,0-.19-.19h-.278a.177.177,0,0,0-.19.19V48.61a.332.332,0,0,0,.366.366h1.9A.152.152,0,0,0,19.907,48.815Zm3.016-.483a.182.182,0,0,0-.073-.249l-.19-.132c-.088-.059-.176-.044-.249.073a.8.8,0,0,1-.717.469.73.73,0,0,1-.732-.761v-.2c0-.117.073-.176.19-.176H22c.117,0,.176-.073.176-.19v-.19A.173.173,0,0,0,22,46.78h-.849a.177.177,0,0,1-.19-.19v-.2a.73.73,0,0,1,.732-.761.809.809,0,0,1,.717.483.162.162,0,0,0,.249.044l.2-.146a.174.174,0,0,0,.044-.249,1.31,1.31,0,0,0-1.215-.732,1.332,1.332,0,0,0-1.376,1.347v1.318a1.341,1.341,0,0,0,1.376,1.347A1.213,1.213,0,0,0,22.923,48.332Zm3.631.483V48.1a1.128,1.128,0,0,0-.381-.937c-.073-.059-.073-.132,0-.176a.882.882,0,0,0,.381-.747,1.226,1.226,0,0,0-1.376-1.186A1.332,1.332,0,0,0,23.8,46.4v2.416a.177.177,0,0,0,.19.19h.278a.177.177,0,0,0,.19-.19V47.526c0-.117.073-.176.19-.176h.556a.73.73,0,0,1,.732.761v.717a.177.177,0,0,0,.19.19h.278A.185.185,0,0,0,26.554,48.815Zm-.644-2.577c0,.469-.512.556-.732.556h-.556a.177.177,0,0,1-.19-.19v-.2a.73.73,0,0,1,.732-.761C25.573,45.652,25.909,45.843,25.909,46.238Zm4.07,2.577v-.19a.177.177,0,0,0-.19-.19H29.1a.177.177,0,0,1-.19-.19V45.857a.177.177,0,0,1,.19-.19h.425a.177.177,0,0,0,.19-.19v-.19a.177.177,0,0,0-.19-.19H27.681a.177.177,0,0,0-.19.19v.19a.177.177,0,0,0,.19.19h.425a.177.177,0,0,1,.19.19v2.386a.177.177,0,0,1-.19.19h-.688a.177.177,0,0,0-.19.19v.19a.177.177,0,0,0,.19.19H29.8A.173.173,0,0,0,29.98,48.815ZM28.911,44.54v-.19a.177.177,0,0,0-.19-.19h-.264a.177.177,0,0,0-.19.19v.19c0,.117.073.176.19.176h.264A.16.16,0,0,0,28.911,44.54ZM15.1,19.109a1.332,1.332,0,1,1,1.332,1.332A1.319,1.319,0,0,1,15.1,19.109ZM8.34,19.27a4.792,4.792,0,0,1,1.947-.234c.132.059.146.176.029.249a6.793,6.793,0,0,1-1.2.41c-.454.161-.849.41-1.288.556-.146.044-.41.117-.5-.073C7.169,19.885,7.418,19.563,8.34,19.27ZM6.979,17.147A3.954,3.954,0,0,1,8,16.971c.644-.029,2.372.278,2.518.776.088.322-.322.22-.469.176l-.293-.088a3.793,3.793,0,0,0-2.665.029c-.249.073-.425.1-.615-.117C6.423,17.4,6.715,17.235,6.979,17.147Zm17.261,2.02a3.369,3.369,0,0,1,1.435.644c.22.2.307.454.117.571s-.732-.161-.864-.22c-.366-.161-.776-.366-1.054-.483-.4-.161-.835-.2-1.23-.366-.088-.029-.19-.073-.19-.176C22.5,18.8,23.391,18.948,24.24,19.167Zm-1.8-1.625a3.406,3.406,0,0,1,1.6-.454c.878-.059,2.738.146,2.884.761.176.776-1.288.2-1.567.117a3.8,3.8,0,0,0-2.416-.117c-.132.029-.586.2-.644-.044A.31.31,0,0,1,22.44,17.542Zm5.812-7.511c-.015-.059-5.4-2.445-8.287,4.129C20.873,14.79,26.3,15.917,28.252,10.031Zm-23.7,0c1.962,5.886,7.379,4.758,8.287,4.129C9.951,7.6,4.563,9.987,4.549,10.031Z" transform="translate(0.039 0.1)"/>
</svg>
