<svg xmlns="http://www.w3.org/2000/svg" width="127.484" height="114.851" viewBox="0 0 127.484 114.851" fill="currentColor">
  <g id="Group_1898" data-name="Group 1898" transform="translate(-4.018 -960.94)">
    <path id="Path_1975" data-name="Path 1975" d="M86.067,960.94a45.138,45.138,0,0,0-28.895,10.4,45.689,45.689,0,0,0-6.974,63.031l-9.1,7.364a8.6,8.6,0,0,0-11.263-.217L7.181,1060.273a8.812,8.812,0,0,0-1.17,12.346,8.687,8.687,0,0,0,12.259,1.17l22.657-18.757a8.726,8.726,0,0,0,1.949-11.133l9.1-7.364A45.467,45.467,0,1,0,86.067,960.94Zm0,2.729a42.788,42.788,0,1,1-32.534,70.525,1.386,1.386,0,0,0-.606-.78A42.871,42.871,0,0,1,58.948,973.5a42.4,42.4,0,0,1,27.118-9.834ZM58.385,984.333a1.386,1.386,0,0,0-1.213,1.386v43.1a1.386,1.386,0,0,0,1.386,1.386h56.316a1.386,1.386,0,0,0,1.386-1.386V990.658a1.386,1.386,0,0,0-1.386-1.386h-6.412a1.244,1.244,0,0,0-1.386,1.386v36.778H102.4v-27.162a1.386,1.386,0,0,0-1.386-1.386H94.6a1.244,1.244,0,0,0-1.386,1.386v27.162H88.536v-16.419a1.386,1.386,0,0,0-1.386-1.386H80.738a1.368,1.368,0,0,0-.173,0,1.386,1.386,0,0,0-1.213,1.386v16.419H74.673v-23.827a1.386,1.386,0,0,0-1.386-1.386H66.876a1.244,1.244,0,0,0-1.386,1.386v23.827H59.945V985.719a1.386,1.386,0,0,0-1.56-1.386Zm51.464,7.711h3.639v35.392h-3.639Zm-13.862,9.617h3.639v25.776H95.987ZM68.262,1005H71.9v22.44H68.262Zm13.862,7.408h3.639v15.032H82.124ZM35.946,1042.3a5.927,5.927,0,0,1,3.855,2.036,1.4,1.4,0,0,0,.3.347,5.961,5.961,0,0,1-.953,8.231L16.5,1071.623a5.867,5.867,0,0,1-8.361-.78,5.937,5.937,0,0,1,.823-8.4l22.612-18.757a5.986,5.986,0,0,1,4.375-1.386Z" transform="translate(0 0)"/>
  </g>
</svg>
