<svg xmlns="http://www.w3.org/2000/svg" width="53.178" height="53.178" viewBox="0 0 53.178 53.178">
  <g id="Group_1876" data-name="Group 1876" transform="translate(-1.2 -1.2)">
    <path id="Path_1925" data-name="Path 1925" d="M42.206,26.334c-.01-.313-.015-.406-.032-.825l-.025-.48c0,.049-.025-.391-.02-.345l-.01-.148-2.989.2v.01c.012.175.022.337.032.515,0,0,.062,1.8.062,1.8l0,.062,0-.025,0,.071v.128l0,.086,0-.025,0,.1v.335a46.278,46.278,0,0,1-.527,7.017,27.787,27.787,0,0,0,3.171-1.093,49.209,49.209,0,0,0,.352-5.921c0-.313,0-.625-.01-.938l-.01-.519ZM11.506,39.3,3.17,36.876l1.62-1.75A10.164,10.164,0,0,1,1.2,27.789a9.38,9.38,0,0,1,2.245-5.906,20.316,20.316,0,0,1,8.22-5.645q-.428,1.787-.712,3.609A18.669,18.669,0,0,0,7.089,22.4,7.934,7.934,0,0,0,4.26,26.986,5.578,5.578,0,0,0,4.9,30.475a9.47,9.47,0,0,0,1.925,2.45l1.618-1.75L11.506,39.3ZM21.88,13.714a48.964,48.964,0,0,1,5.909-.364A45.8,45.8,0,0,1,40.7,15.127c5.712,1.686,13.632,5.741,13.674,12.662a9.376,9.376,0,0,1-2.243,5.9c-5.3,6.455-16.458,8.536-24.346,8.536a46.645,46.645,0,0,1-6.64-.448l.406-2.967a43.887,43.887,0,0,0,6.236.419c6.672,0,15.505-1.529,20.7-6.056a7.445,7.445,0,0,0,2.893-5.387c-.032-3.582-3.471-6.194-6.337-7.716-5.136-2.691-11.515-3.73-17.258-3.73a46.51,46.51,0,0,0-7.021.539,28.008,28.008,0,0,1,1.113-3.169Zm13.846,30.9c1.2-.187,2.4-.416,3.592-.7C37.226,49,33.474,54.344,27.789,54.378a9.378,9.378,0,0,1-5.906-2.243c-6.455-5.3-8.533-16.458-8.533-24.346a45.814,45.814,0,0,1,1.778-12.915C16.814,9.162,20.869,1.242,27.789,1.2c3.58,0,6.468,2.28,8.533,5.017L38.238,4.8l1.5,8.545L32,9.42,33.914,8c-1.43-1.938-3.607-3.8-6.125-3.8-3.582.032-6.194,3.474-7.716,6.34-2.691,5.131-3.73,11.51-3.73,17.253,0,6.672,1.529,15.505,6.059,20.7a7.44,7.44,0,0,0,5.387,2.893c3.582-.032,6.194-3.471,7.716-6.337Z" transform="translate(0 0)" fill="currentColor" fill-rule="evenodd"/>
  </g>
</svg>
