<svg xmlns="http://www.w3.org/2000/svg" width="54.168" height="52.602" viewBox="0 0 54.168 52.602">
  <g id="Group_1800" data-name="Group 1800" transform="translate(-10.683 -11.82)">
    <path id="Path_1735" data-name="Path 1735" d="M61.68,18.537a1.367,1.367,0,0,0,1.366-1.366V13.186a1.366,1.366,0,0,0-2.733,0v3.985A1.366,1.366,0,0,0,61.68,18.537Z" transform="translate(-15.427)" fill="currentColor"/>
    <path id="Path_1736" data-name="Path 1736" d="M84.834,36.82H80.848a1.366,1.366,0,0,0,0,2.733h3.985a1.366,1.366,0,0,0,0-2.733Z" transform="translate(-21.349 -7.77)" fill="currentColor"/>
    <path id="Path_1737" data-name="Path 1737" d="M76.2,24.292l2.818-2.818a1.366,1.366,0,0,0-1.932-1.932L74.267,22.36A1.366,1.366,0,1,0,76.2,24.292Z" transform="translate(-19.57 -2.32)" fill="currentColor"/>
    <path id="Path_1738" data-name="Path 1738" d="M76.2,50.773a1.367,1.367,0,0,0-1.933,1.932l2.818,2.818a1.366,1.366,0,1,0,1.932-1.932Z" transform="translate(-19.571 -11.969)" fill="currentColor"/>
    <path id="Path_1739" data-name="Path 1739" d="M45.855,24.292a1.366,1.366,0,1,0,1.932-1.933l-2.818-2.818a1.366,1.366,0,0,0-1.932,1.932Z" transform="translate(-9.921 -2.32)" fill="currentColor"/>
    <path id="Path_1740" data-name="Path 1740" d="M55.689,34.3a9.722,9.722,0,0,0-19.053-2.741,12.893,12.893,0,0,0-17.8,9.047,8.324,8.324,0,0,0-.122,16.642v-.01H19.94a1.366,1.366,0,0,0,0-2.733H18.625a5.593,5.593,0,0,1-.092-11.152c0,.011,0,.021,0,.032v1.992a1.366,1.366,0,1,0,2.733,0V43.391a10.19,10.19,0,1,1,20.379,0v.575h.005c0,.017-.005.033-.005.051v1.366a1.366,1.366,0,0,0,2.733,0V43.391c0-.011,0-.021,0-.032a5.6,5.6,0,0,1,.21,11.129v.023H43.62a1.366,1.366,0,0,0,0,2.733h1.324c.017-.023.039-.043.056-.066a8.308,8.308,0,0,0,4.906-13.993A9.73,9.73,0,0,0,55.689,34.3ZM47,41.22a8.283,8.283,0,0,0-2.933-.609,12.951,12.951,0,0,0-4.986-7.628A7,7,0,1,1,47,41.22Z" transform="translate(0 -3.845)" fill="currentColor"/>
    <path id="Path_1741" data-name="Path 1741" d="M38.4,60.727l-.948-.911-.948.911c-.674.648-6.586,6.452-6.586,10.539a7.746,7.746,0,0,0,7.533,7.926,7.745,7.745,0,0,0,7.532-7.926C44.983,67.18,39.072,61.376,38.4,60.727ZM37.451,76.46a5.014,5.014,0,0,1-4.8-5.193c0-1.916,2.647-5.339,4.8-7.612,2.152,2.272,4.8,5.7,4.8,7.612A5.013,5.013,0,0,1,37.451,76.46Z" transform="translate(-5.941 -14.771)" fill="currentColor"/>
  </g>
</svg>
