<svg xmlns="http://www.w3.org/2000/svg" width="47.404" height="53.3" viewBox="0 0 47.404 53.3">
  <g id="Group_1847" data-name="Group 1847" transform="translate(-1311.347 -2491)">
    <path id="Path_1827" data-name="Path 1827" d="M44.269,77.965H15.239a3.9,3.9,0,0,1-3.893-3.893v-16.9a3.9,3.9,0,0,1,3.893-3.893h29.03a3.9,3.9,0,0,1,3.893,3.893v16.9A3.9,3.9,0,0,1,44.269,77.965Zm-29.03-22.89a2.1,2.1,0,0,0-2.1,2.1v16.9a2.1,2.1,0,0,0,2.1,2.1h29.03a2.1,2.1,0,0,0,2.1-2.1v-16.9a2.1,2.1,0,0,0-2.1-2.1Z" transform="translate(1300 2466.335)" fill="currentColor"/>
    <path id="Path_1828" data-name="Path 1828" d="M44.269,30.187H15.239a3.9,3.9,0,0,1-3.893-3.893V9.393A3.9,3.9,0,0,1,15.239,5.5h29.03a3.9,3.9,0,0,1,3.893,3.893v16.9A3.9,3.9,0,0,1,44.269,30.187ZM15.239,7.3a2.1,2.1,0,0,0-2.1,2.1v16.9a2.1,2.1,0,0,0,2.1,2.1h29.03a2.1,2.1,0,0,0,2.1-2.1V9.393a2.1,2.1,0,0,0-2.1-2.1Z" transform="translate(1300 2485.5)" fill="currentColor"/>
    <path id="Path_1829" data-name="Path 1829" d="M85.018,32.761a4.1,4.1,0,0,0-3.194-3.99V6.429a.9.9,0,0,0-1.8,0V28.771a4.089,4.089,0,0,0,0,7.98V57.914a.9.9,0,0,0,1.8,0V36.751A4.1,4.1,0,0,0,85.018,32.761Zm-4.092,2.3a2.3,2.3,0,1,1,2.3-2.3A2.3,2.3,0,0,1,80.926,35.057Z" transform="translate(1273.732 2485.488)" fill="currentColor"/>
  </g>
</svg>
