<svg xmlns="http://www.w3.org/2000/svg" width="59.413" height="52.175" viewBox="0 0 59.413 52.175">
  <g id="Group_1829" data-name="Group 1829" transform="translate(0 -6)">
    <g id="Group_1829-2" data-name="Group 1829" transform="translate(0 6)">
      <path id="Path_1785" data-name="Path 1785" d="M57.083,27.291a4.556,4.556,0,0,1-2.343,3.98q-.1.055-.2.1l-.028.014c-.081.039-.163.075-.246.109l-.049.019q-.108.043-.217.08l-.042.014a4.549,4.549,0,0,1-.542.142l-.015,0c-.082.016-.165.029-.249.04l-.061.008c-.07.009-.141.015-.212.021l-.068.005c-.09.005-.18.009-.271.009-.071,0-.141,0-.211-.005l-.085-.005-.118-.009-.113-.012-.076-.01-.141-.021h0a4.576,4.576,0,0,1-2.955-1.857l-.041-.058-.06-.091-.053-.083-.051-.084-.056-.1-.043-.078c-.02-.037-.039-.075-.058-.113s-.024-.046-.035-.07q-.042-.088-.081-.178c-.012-.028-.023-.057-.034-.085s-.027-.068-.04-.1-.026-.072-.038-.108-.018-.053-.027-.08-.026-.082-.038-.123A4.545,4.545,0,0,1,48,27.291v-2.9h9.087Zm-2.9,6.685V55.841H23.967V43.92a6.873,6.873,0,1,0-13.747,0V55.841H5.266V33.985l.042.009q.155.036.313.066l.083.015q.149.026.3.045l.094.012c.1.011.2.02.3.027l.092.007c.128.007.257.012.386.012.1,0,.206,0,.309-.008l.079,0c.092-.005.184-.012.276-.021l.122-.014.15-.019a6.863,6.863,0,0,0,4.262-2.322l0,0c.091-.1.178-.212.263-.323v0c.033-.044.066-.088.1-.132l.076-.107c.024-.034.048-.067.071-.1.023.034.047.067.071.1s.051.072.077.107.064.088.1.132l0,.005q.125.163.259.318l0,0a6.863,6.863,0,0,0,4.261,2.321l.15.019.122.014c.091.009.183.016.276.021l.079,0c.1,0,.205.008.309.008s.206,0,.309-.008l.079,0c.092-.005.184-.012.276-.021l.122-.014.15-.019a6.863,6.863,0,0,0,4.262-2.322l0,0c.091-.1.178-.212.263-.323v0c.033-.044.066-.088.1-.132l.076-.107c.024-.034.048-.067.071-.1.023.034.047.067.071.1s.051.072.077.107.064.088.1.132l0,.005q.125.163.259.318l0,0a6.863,6.863,0,0,0,4.261,2.321l.15.019.122.014c.091.009.183.016.276.021l.079,0c.1,0,.205.008.309.008s.206,0,.309-.008l.079,0c.092-.005.184-.012.276-.021l.122-.014.15-.019A6.863,6.863,0,0,0,34.9,31.789l0,0c.091-.1.178-.212.263-.323v0c.033-.044.066-.088.1-.132l.076-.107c.024-.034.048-.067.071-.1.023.034.047.067.071.1s.051.072.077.107.064.088.1.132l0,.005q.125.163.259.318l0,0a6.863,6.863,0,0,0,4.261,2.321l.15.019.122.014c.091.009.183.016.276.021l.079,0c.1,0,.205.008.309.008s.206,0,.309-.008l.079,0c.092-.005.184-.012.276-.021l.122-.014.15-.019a6.863,6.863,0,0,0,4.262-2.322l0,0c.091-.1.178-.212.263-.323v0c.033-.044.066-.088.1-.132l.076-.107c.024-.034.048-.067.071-.1.023.034.047.067.071.1s.051.072.077.107.064.088.1.132l0,.005q.125.163.259.318l0,0A6.863,6.863,0,0,0,51.6,34.111l.15.019.122.014c.091.009.183.016.276.021l.079,0c.1,0,.205.008.309.008.132,0,.262,0,.392-.012l.1-.007c.1-.007.2-.016.3-.028l.1-.012q.157-.02.311-.048l.074-.013c.12-.023.239-.048.356-.077l.017,0ZM12.55,55.841V43.92a4.543,4.543,0,1,1,9.087,0V55.841ZM2.33,24.389h9.087v2.9a4.549,4.549,0,0,1-.183,1.277q-.019.066-.041.132c-.007.023-.015.046-.023.069-.014.04-.027.08-.042.119s-.022.055-.033.083c-.018.045-.036.089-.055.133s-.042.1-.065.144c-.013.028-.027.055-.041.082s-.034.067-.051.1-.032.058-.048.087l-.051.088-.055.091-.048.075c-.021.033-.043.066-.065.1l-.034.048A4.576,4.576,0,0,1,7.62,31.78h0l-.142.021-.076.01-.113.012-.118.009-.085.005c-.07,0-.14.005-.211.005-.09,0-.179,0-.268-.009l-.068-.005c-.069-.005-.138-.012-.206-.02L6.265,31.8q-.114-.015-.226-.036L6,31.758a4.483,4.483,0,0,1-.526-.136L5.42,31.6c-.063-.021-.126-.044-.189-.069L5.153,31.5c-.057-.023-.114-.049-.17-.075l-.074-.034c-.071-.034-.142-.071-.211-.109A4.556,4.556,0,0,1,2.33,27.291ZM7.667,14.14h7.05l-2.945,7.914h-8.6Zm.488-5.806h43.22v3.472H8.155ZM47.708,22.055,44.763,14.14h6.873l4.588,7.914ZM42.276,14.14l2.945,7.914H36.44L34.886,14.14Zm-9.766,0,1.555,7.914H25.415l1.555-7.914Zm-7.916,0L23.04,22.055H14.259L17.2,14.14Zm-5.561,17.64-.142.021-.076.01-.113.012-.118.009-.085.005c-.07,0-.14.005-.211.005s-.141,0-.211-.005l-.085-.005-.118-.009-.113-.012-.076-.01-.141-.021h0a4.576,4.576,0,0,1-2.955-1.857l-.041-.058-.06-.091-.053-.083-.051-.084-.056-.1-.043-.078c-.02-.037-.039-.075-.058-.113s-.024-.046-.035-.07q-.042-.088-.081-.178c-.012-.028-.023-.057-.034-.085s-.027-.068-.04-.1-.026-.072-.038-.108-.018-.053-.027-.08-.026-.082-.038-.123a4.546,4.546,0,0,1-.185-1.282v-2.9h9.087v2.9a4.549,4.549,0,0,1-.183,1.277q-.019.066-.041.132c-.007.023-.015.046-.023.069-.014.04-.027.08-.042.119s-.022.055-.033.083c-.018.045-.036.089-.055.133s-.042.1-.065.144c-.013.028-.027.055-.041.082s-.034.067-.051.1-.032.058-.048.087L22.2,29.6l-.055.091-.048.075c-.021.033-.043.066-.065.1L22,29.915a4.576,4.576,0,0,1-2.962,1.865Zm11.417,0-.142.021-.076.01-.113.012L30,31.832l-.085.005c-.07,0-.14.005-.211.005s-.141,0-.211-.005l-.085-.005-.118-.009-.113-.012L29.1,31.8l-.141-.021h0A4.576,4.576,0,0,1,26,29.923l-.041-.058-.06-.091-.053-.083-.051-.084-.056-.1-.043-.078c-.02-.037-.039-.075-.058-.113s-.024-.046-.035-.07q-.042-.088-.081-.178c-.012-.028-.023-.057-.034-.085s-.027-.068-.04-.1-.026-.072-.038-.108-.018-.053-.027-.08-.026-.082-.038-.123a4.546,4.546,0,0,1-.185-1.282v-2.9H34.25v2.9a4.549,4.549,0,0,1-.183,1.277q-.019.066-.041.132c-.007.023-.015.046-.023.069-.014.04-.027.08-.042.119s-.022.055-.033.083c-.018.045-.036.089-.055.133s-.042.1-.065.144c-.013.028-.027.055-.041.082s-.034.067-.051.1-.032.058-.048.087l-.051.088-.055.091-.048.075c-.021.033-.043.066-.065.1l-.034.048a4.576,4.576,0,0,1-2.962,1.865Zm11.417,0-.142.021-.076.01-.113.012-.118.009-.085.005c-.07,0-.14.005-.211.005s-.141,0-.211-.005l-.085-.005-.118-.009-.113-.012-.076-.01-.141-.021h0a4.576,4.576,0,0,1-2.955-1.857l-.041-.058-.06-.091-.053-.083-.051-.084-.056-.1-.043-.078c-.02-.037-.039-.075-.058-.113s-.024-.046-.035-.07q-.042-.088-.081-.178c-.012-.028-.023-.057-.034-.085s-.027-.068-.04-.1-.026-.072-.038-.108-.018-.053-.027-.08-.026-.082-.038-.123a4.545,4.545,0,0,1-.185-1.282v-2.9h9.087v2.9a4.549,4.549,0,0,1-.183,1.277q-.019.066-.041.132c-.007.023-.015.046-.023.069-.014.04-.027.08-.042.119s-.022.055-.033.083c-.018.045-.036.089-.055.133s-.042.1-.065.144c-.013.028-.027.055-.041.082s-.034.067-.051.1-.032.058-.048.087l-.051.088-.055.091-.048.075c-.021.033-.043.066-.065.1l-.034.048A4.576,4.576,0,0,1,41.87,31.78Zm17.546-8.569a1.226,1.226,0,0,0-.009-.13c0-.013,0-.025-.006-.037-.005-.035-.012-.07-.021-.1,0-.012-.006-.023-.009-.035a1.123,1.123,0,0,0-.043-.127l0,0a1.153,1.153,0,0,0-.063-.128l-.005-.01L53.7,13.054c0-.027,0-.053,0-.081V7.167A1.166,1.166,0,0,0,52.54,6H6.99A1.166,1.166,0,0,0,5.825,7.167v5.5L.153,22.644l0,.007a1.189,1.189,0,0,0-.062.127L.081,22.8a1.162,1.162,0,0,0-.038.114l-.009.035c-.008.035-.015.07-.02.107,0,.011,0,.022-.005.033A1.178,1.178,0,0,0,0,23.222v4.069A6.884,6.884,0,0,0,2.936,32.93V57.008A1.166,1.166,0,0,0,4.1,58.175H55.349a1.166,1.166,0,0,0,1.165-1.167V32.9a6.884,6.884,0,0,0,2.9-5.612V23.222h0s0-.006,0-.009ZM30.872,49.14H47.578V39.368H30.872ZM48.743,37.034H29.707A1.166,1.166,0,0,0,28.542,38.2V50.307a1.166,1.166,0,0,0,1.165,1.167H48.743a1.166,1.166,0,0,0,1.165-1.167V38.2a1.166,1.166,0,0,0-1.165-1.167Z" transform="translate(0 -6)" fill="currentColor" fill-rule="evenodd"/>
    </g>
  </g>
</svg>
