<svg xmlns="http://www.w3.org/2000/svg" width="56.459" height="56.459" viewBox="0 0 56.459 56.459">
  <g id="Group_1843" data-name="Group 1843" transform="translate(-12.809 -12.059)">
    <path id="Path_1802" data-name="Path 1802" d="M49.633,75.226l0-.01,0,0Z" transform="translate(-9.425 -16.165)" fill="currentColor"/>
    <path id="Path_1803" data-name="Path 1803" d="M59.311,41.9a6.823,6.823,0,0,0-3.026-2.811c-.522-.259-1.086-.434-1.718-.681a24.088,24.088,0,0,1,2.781,2.03,19.973,19.973,0,0,1,4.961,8.792,6.757,6.757,0,0,1,.158,4.168,2.164,2.164,0,0,0-.009.641l.218.076a3.573,3.573,0,0,0,.357-.8,8.121,8.121,0,0,0-.432-4.866C61.6,46.228,60.484,44.046,59.311,41.9Z" transform="translate(-10.688 -6.745)" fill="currentColor"/>
    <path id="Path_1804" data-name="Path 1804" d="M50.042,27.6c-.89-.1-1.778-.268-2.669-.288a29.129,29.129,0,0,0-9.9,1.643,6.322,6.322,0,0,0-1.35.877l.124.181a15.258,15.258,0,0,1,2.587-1.266,24.17,24.17,0,0,1,3.477-.523c1.023-.131,2.049-.242,3.075-.341a2.044,2.044,0,0,1,.563.107,23.869,23.869,0,0,1,7.664.478,6.559,6.559,0,0,0-1.8-.684C51.229,27.668,50.63,27.667,50.042,27.6Z" transform="translate(-5.966 -3.904)" fill="currentColor"/>
    <path id="Path_1805" data-name="Path 1805" d="M46.755,67.894c-.726.675-1.542,1.254-2.341,1.894.038.022.059.045.071.04a1.91,1.91,0,0,0,.221-.08,11.947,11.947,0,0,0,5.876-5.953A12.171,12.171,0,0,0,51.8,60.158a1.907,1.907,0,0,0-.068-.513c-.129.115-.321.205-.379.35-.385.958-.743,1.926-1.108,2.891A13.262,13.262,0,0,1,46.755,67.894Z" transform="translate(-8.089 -12.18)" fill="currentColor"/>
    <path id="Path_1806" data-name="Path 1806" d="M50.089,32.725a19.115,19.115,0,0,0-3.6-.464c-2.868.1-5.33,1.415-7.682,2.949a29.146,29.146,0,0,1,6.183-2.391c2.266-.449,4.458.124,6.682.477,2.277.363,4.094,1.644,6.084,2.622a8.972,8.972,0,0,0-1.563-1.251A16.634,16.634,0,0,0,50.089,32.725Z" transform="translate(-6.653 -5.17)" fill="currentColor"/>
    <path id="Path_1807" data-name="Path 1807" d="M43.414,26.569a31.742,31.742,0,0,1,3.428-.387c.576-.033,1.179.267,1.741.193a7.353,7.353,0,0,1,2.993.327,10.32,10.32,0,0,0,1.548.2l.013-.165c-4.11-1.752-12.26-.637-14,.525.011.051.022.1.033.153C40.587,27.131,41.994,26.807,43.414,26.569Z" transform="translate(-6.74 -3.524)" fill="currentColor"/>
    <path id="Path_1808" data-name="Path 1808" d="M49.287,63.208a9.162,9.162,0,0,0,.219-.958l-.228-.092c-.111.185-.223.371-.333.557a33.4,33.4,0,0,1-2.565,4.222,22.292,22.292,0,0,1-3.294,2.813c-.435.357-.894.686-1.343,1.028.033.044.067.088.1.132a15.858,15.858,0,0,0,4.768-3.527A11.177,11.177,0,0,0,49.287,63.208Z" transform="translate(-7.405 -12.823)" fill="currentColor"/>
    <path id="Path_1809" data-name="Path 1809" d="M58.783,33.5l.087-.17a11.223,11.223,0,0,0-4.05-2.18,21.223,21.223,0,0,1-2.064-.723,6.142,6.142,0,0,0-1.341-.439,12.984,12.984,0,0,0-2.211-.009c-.661.045-1.315.19-1.972.291.005.055.01.111.015.167a14.249,14.249,0,0,1,5.527.481A12.754,12.754,0,0,1,57.2,32.739,7.766,7.766,0,0,0,58.783,33.5Z" transform="translate(-8.811 -4.577)" fill="currentColor"/>
    <path id="Path_1810" data-name="Path 1810" d="M66.328,48.166c-1.171-1.984-2.418-3.923-3.648-5.873a2.386,2.386,0,0,0-.447-.42.922.922,0,0,0,.153.584c.78,1.228,1.57,2.449,2.347,3.678A14.436,14.436,0,0,1,66.851,50.9a3.574,3.574,0,0,0,.028-.923A6.223,6.223,0,0,0,66.328,48.166Z" transform="translate(-12.65 -7.631)" fill="currentColor"/>
    <path id="Path_1811" data-name="Path 1811" d="M42.851,28.9a18.364,18.364,0,0,0-7.666,2.774Z" transform="translate(-5.727 -4.312)" fill="currentColor"/>
    <path id="Path_1812" data-name="Path 1812" d="M66.623,60.492c1.029-1.66,1.714-4.964,1.214-5.767A22.652,22.652,0,0,1,66.623,60.492Z" transform="translate(-13.774 -10.92)" fill="currentColor"/>
    <path id="Path_1813" data-name="Path 1813" d="M36.379,58.248c-.971.9-.743,2.353-1.561,3.467.13-.016.329.016.379-.057A7.671,7.671,0,0,0,36.379,58.248Z" transform="translate(-5.633 -11.822)" fill="currentColor"/>
    <path id="Path_1814" data-name="Path 1814" d="M51.694,24.6c-1.514-.1-3-.736-4.551-.174,0,.055-.007.111-.01.167l4.551.185C51.687,24.718,51.69,24.659,51.694,24.6Z" transform="translate(-8.785 -3.107)" fill="currentColor"/>
    <path id="Path_1815" data-name="Path 1815" d="M55.461,30.21l4.884,1.816A8.113,8.113,0,0,0,55.461,30.21Z" transform="translate(-10.917 -4.646)" fill="currentColor"/>
    <path id="Path_1816" data-name="Path 1816" d="M45.989,74.326a5.791,5.791,0,0,1,.638-.623c.3-.226.638-.4.961-.6-.049-.073-.1-.144-.149-.217l-3.422,2.294a8.828,8.828,0,0,0,1.624-.475C45.785,74.647,45.869,74.45,45.989,74.326Z" transform="translate(-7.988 -15.568)" fill="currentColor"/>
    <path id="Path_1817" data-name="Path 1817" d="M43.5,25.156a17.25,17.25,0,0,0,1.794-.519l-.065-.232-3.641.709c.011.064.022.129.034.193A17.666,17.666,0,0,0,43.5,25.156Z" transform="translate(-7.366 -3.16)" fill="currentColor"/>
    <path id="Path_1818" data-name="Path 1818" d="M49.629,75.227v-.006l-.009,0Z" transform="translate(-9.422 -16.166)" fill="currentColor"/>
    <path id="Path_1819" data-name="Path 1819" d="M48.136,75.105c-.879.318-1.748.665-2.62,1,.029.074.059.146.089.219l2.964-1.136C48.423,75.156,48.255,75.063,48.136,75.105Z" transform="translate(-8.371 -16.134)" fill="currentColor"/>
    <path id="Path_1820" data-name="Path 1820" d="M32.133,53.356c-.107.026-.286.025-.309.083-.121.315-.2.644-.3.969l.212.068c.147-.266.307-.528.433-.8C32.208,53.589,32.148,53.462,32.133,53.356Z" transform="translate(-4.791 -10.57)" fill="currentColor"/>
    <path id="Path_1821" data-name="Path 1821" d="M41.039,12.059a28.23,28.23,0,1,0,28.229,28.23,28.661,28.661,0,0,0-.811-6.73A28.217,28.217,0,0,0,41.039,12.059ZM16.813,40.289A24.1,24.1,0,0,1,21.6,25.847l6.948,6.8c0,.006-.007.011-.011.017l.016-.012.5.487q-1.1,1.117-2.2,2.239l.292.3L29.2,33.288l.419.41a13.845,13.845,0,0,0-2.5,3.576,4.261,4.261,0,0,0,.532-.61,29.217,29.217,0,0,1,2.239-2.7l.423.414a12.47,12.47,0,0,0-3.7,6.479,4.528,4.528,0,0,0,.349-.606c.511-.9,1.032-1.786,1.548-2.68a1.141,1.141,0,0,0,.156-.315,4.182,4.182,0,0,1,1.431-2.225c.154-.14.314-.272.472-.407l.275.269c-.491.528-.967,1.074-1.437,1.627a3.045,3.045,0,0,0-.275.574c.7-.686,1.347-1.321,1.98-1.938l.356.348c-.56.565-1.121,1.131-1.716,1.657a9.382,9.382,0,0,0-2.521,4.658c-.061.2.11.478.173.719l.176-.046c.027-.071.057-.141.081-.214a12.333,12.333,0,0,1,.872-2.507,22.222,22.222,0,0,1,3.213-3.993l.359.353q-.616.615-1.233,1.23a3.792,3.792,0,0,0-.837,1.074c-.788,1.781-1.562,3.57-2.252,5.389a12.838,12.838,0,0,0-.462,2.306c-.014.076.065.167.14.344.2-.572.357-1.054.541-1.525.15-.385.369-.748.493-1.14.355-1.112.581-2.275,1.03-3.346a13.933,13.933,0,0,1,2.845-4.074l.307.3a12.727,12.727,0,0,0-1.66,2.363,42.015,42.015,0,0,0-2.743,7.3,14.483,14.483,0,0,0-.342,1.608l.183.059a3.856,3.856,0,0,0,.165-.351q.836-2.362,1.667-4.725c.026-.075.046-.153.077-.226.242-.581.46-1.175.737-1.739.2-.406.6-.743.7-1.162a5.869,5.869,0,0,1,1.609-2.744l.336.33a14.313,14.313,0,0,0-1.6,2.472,8.246,8.246,0,0,0-1.254,3.474,6.336,6.336,0,0,1-.69,1.879c-.218.551-.478,1.089-.658,1.653a15.049,15.049,0,0,0-.327,1.5l.227.064c.115-.256.239-.508.344-.767.17-.422.3-.86.5-1.271.283-.6.627-1.182.9-1.789a10.492,10.492,0,0,0,.728-1.876,6.579,6.579,0,0,1,.422-1.749A32.716,32.716,0,0,1,33.81,37.8l.313.306a9.572,9.572,0,0,0-1.155,2.1c-.7,1.707-1.22,3.486-1.8,5.239a.972.972,0,0,0-.019.53,3.935,3.935,0,0,1-.31,2.621c-.354.821-.273,1.816-1.017,2.483a2.151,2.151,0,0,0-.342.6.662.662,0,0,0,.426-.2,12.366,12.366,0,0,0,1.712-3.148c.046-.1,0-.236.008-.354a8.807,8.807,0,0,1,.292-2.564c.4-.937.612-1.907.925-2.856.2-.622.5-1.219.654-1.85a6.593,6.593,0,0,1,1.013-2.226l.466.456c-.037.075-.079.146-.115.222a46.5,46.5,0,0,0-1.8,4.851,15.082,15.082,0,0,0-.822,3.1A9.216,9.216,0,0,1,31,51a3.437,3.437,0,0,0-.245.7l.228.112a8.554,8.554,0,0,0,.76-1.152c.4-.866.748-1.754,1.078-2.65a4.734,4.734,0,0,0,.149-.978l-.156-.03a2.563,2.563,0,0,0,.362-.588c.327-1.132.586-2.286.946-3.407a15.153,15.153,0,0,0,.848-2.561,3.519,3.519,0,0,1,.38-1.144l.491.481a21.7,21.7,0,0,0-1.067,3.146c-.521,1.973-1.318,3.876-1.785,5.859A9.435,9.435,0,0,1,30.9,52.81a5.608,5.608,0,0,0-.359.565c.2-.054.263-.053.3-.085a10.843,10.843,0,0,0,3.042-5.164c.137-.432.1-1.036.386-1.275.456-.385-.008-1.141.67-1.333q.573-1.685,1.141-3.372a1.541,1.541,0,0,0,.08-.41,5.948,5.948,0,0,1,.265-1.373l.429.419a52.166,52.166,0,0,1-3.394,9.437.468.468,0,0,0-.041.112A6.6,6.6,0,0,1,31.9,53.136c-.272.35-.531.708-.794,1.063l.139.115A7.622,7.622,0,0,0,32.4,53.056a42.706,42.706,0,0,0,3.078-5.835c.165-.426.366-.838.536-1.263a10.2,10.2,0,0,0,.513-1.385c.269-1.121.483-2.255.75-3.376l.356.348a21.7,21.7,0,0,1-1.862,6.217c-.76,1.528-1.63,3-2.447,4.5-.145.267-.272.545-.408.818a3.2,3.2,0,0,0,1-.972c1.206-2.036,2.379-4.092,3.559-6.143a1.128,1.128,0,0,0,.1-.344c.166-.879.357-1.753.484-2.637a7.707,7.707,0,0,0,.09-.94l.5.487a4.947,4.947,0,0,1-.266,1.876,31.121,31.121,0,0,1-4.834,8.952c-.086.109-.173.272-.284.295-.805.167-1,.969-1.56,1.383.037.047.074.1.111.144.2-.117.4-.222.589-.353a15.837,15.837,0,0,0,4.307-5.146,51.939,51.939,0,0,0,2.278-4.8c.065-.14.182-.336.132-.435a2.11,2.11,0,0,1,.016-1.442l.857.839a.935.935,0,0,1-.1.315c-.271.5-.629.954-.85,1.471-1.552,3.629-3.335,7.106-6.268,9.856a3.219,3.219,0,0,0-.321.409l.224.153c3.531-2.882,5.443-6.853,7.176-10.959a1.505,1.505,0,0,1-.014.508c-.778,3.254-2.63,5.934-4.573,8.566-.172.234-.312.491-.467.738l.159.113a9.373,9.373,0,0,0,.93-.912,29.351,29.351,0,0,0,3.908-6.5,9.809,9.809,0,0,0,.779-3.182l.4.387c-.013.081-.013.162-.029.243A18.08,18.08,0,0,1,36.1,54.351a2.7,2.7,0,0,1-1.42,1c-.69.156-1.248.9-1.864,1.385a.339.339,0,0,0,.323.034,19.113,19.113,0,0,0,3.081-1.855,12.686,12.686,0,0,0,2.789-3.24c.533-.96,1.4-1.884,1.307-3.147-.009-.115.141-.234.194-.36a15.24,15.24,0,0,0,.92-2.24c.046-.184.083-.369.117-.554l.3.291A17.474,17.474,0,0,1,36,55.6a36.254,36.254,0,0,1-2.981,2.141,3.828,3.828,0,0,0,1.221-.516c.441-.269.85-.592,1.3-.847a10.232,10.232,0,0,0,4.161-3.9,11.5,11.5,0,0,1,.711-1.028,1.685,1.685,0,0,0,.194-.288c.259-.62.505-1.245.763-1.865a6,6,0,0,0,.375-.852c.185-.771.408-1.536.592-2.307l.35.343a5.658,5.658,0,0,1-.479,1.44,4.351,4.351,0,0,0-.188,1.207,3.761,3.761,0,0,0,1.109-2.214l1.022,1c-.26.832-.488,1.676-.786,2.495a10.668,10.668,0,0,1-2.417,4.211c-.818.792-1.647,1.571-2.464,2.365a6,6,0,0,1-2.321,1.423,13.161,13.161,0,0,0-1.4.649c.031.071.063.14.1.211a11.9,11.9,0,0,0,2.111-.9c1.369-.922,2.681-1.936,3.973-2.964a9.172,9.172,0,0,0,1.1-1.276c.1-.118.222-.217.329-.33a2.171,2.171,0,0,0,.449-.5c.41-.906.79-1.825,1.174-2.743a8.769,8.769,0,0,0,.632-2.17l.32.313c-.014.059-.025.118-.039.177a12.158,12.158,0,0,1-1.879,4.482c-.941,1.286-2.065,2.436-3.152,3.7,2.391-1.122,4.649-4.369,5.607-7.829l.339.332A16.021,16.021,0,0,1,44.2,53.075a13.929,13.929,0,0,1-5.076,5.211,3.188,3.188,0,0,0-.45.356.815.815,0,0,0,.579-.035c1.882-.824,3.1-2.49,4.66-3.716.078-.7.6-.635,1.083-.635a2.564,2.564,0,0,1,.161-.372,27.72,27.72,0,0,0,1.56-2.538c.1-.212.19-.427.278-.642l.315.308a6.135,6.135,0,0,1-2.321,3.261l.017-.016h-.011l-.006.015c-.551.5-1.1,1-1.651,1.5-.942.85-1.9,1.683-2.817,2.557a2.016,2.016,0,0,0-.31.725,1.113,1.113,0,0,1,.178-.14,25.718,25.718,0,0,0,7.606-5.339,1.454,1.454,0,0,0,.176-.412,3.528,3.528,0,0,1,.38-.837c.016-.019.028-.039.043-.058l.412.4c-.189.377-.379.754-.565,1.131a.708.708,0,0,1-.211.21q-2.346,1.808-4.695,3.612c-.165.126-.338.242-.561.4l.722.375c-.018.051-.036.1-.053.154-.2-.064-.4-.137-.6-.188-.179-.046-.411-.158-.539-.089-1.351.717-2.687,1.463-4.027,2.2.007.049.013.1.019.15a3.787,3.787,0,0,0,1.031-.173c.815-.388,1.6-.844,2.388-1.278.3-.167.591-.422.993-.125l-.5.439.108.142,1.043-.628-.084-.145a5.033,5.033,0,0,0,2.923-.908c1.1-.777,2.173-1.6,3.265-2.392.441-.32.888-.629,1.333-.943l.5.493a16.708,16.708,0,0,0-4.487,2.963c.491.173.927.373,1.176-.272a.467.467,0,0,1,.313-.253,2.185,2.185,0,0,0,1.288-.73c.51-.5,1.08-.93,1.634-1.379a1.775,1.775,0,0,1,.246-.162l4.222,4.133A24.206,24.206,0,0,1,16.813,40.289Zm33.88,7.487c-.03.3-.014.615-.022.92l-.446-.436c.019-.156.039-.312.051-.472l-.135.39-.457-.448a.72.72,0,0,1,.879-.413c0-.822-.013-1.579,0-2.336a7.41,7.41,0,0,0-1.039-4.051,12.455,12.455,0,0,1-.644-1.41,16.169,16.169,0,0,0-3.243-4.914c-2.1-2.126-4.708-2.276-7.442-1.947-.532.064-1.056.2-1.584.3-.016-.053-.033-.106-.048-.158a8.459,8.459,0,0,1,1.079-.426,10.093,10.093,0,0,1,1.241-.166c.367-.045.734-.086,1.1-.129a6.656,6.656,0,0,0-4.95,1.313l-.359-.353a8.611,8.611,0,0,1,5.151-1.466,9.057,9.057,0,0,1,5.068,1.9,13.239,13.239,0,0,1,4.454,5.744,13.175,13.175,0,0,1,1.571,6.609C50.874,46.48,50.758,47.126,50.694,47.776Zm.053,6.6a2.509,2.509,0,0,1-1.459.621c.368-.324.74-.641,1.109-.964Zm-.64-.627a12.883,12.883,0,0,0-1.714,1.567,15,15,0,0,1-3.239,2.429,5.028,5.028,0,0,1-1.046.422c.017-.155.073-.217.141-.248,2.16-.962,3.656-2.772,5.335-4.317.064-.059.118-.129.179-.19Zm-.865-.846.189.185-.17.179-.162-.142C49.148,53.05,49.194,52.974,49.242,52.9ZM42.369,40.571a8.131,8.131,0,0,0-.176-.92,3.741,3.741,0,0,0-3.085-2.272l-.483-.472a4.157,4.157,0,0,1,3.337,1.542,8.75,8.75,0,0,1,1.743,3.429Zm6.339,6.2a1.437,1.437,0,0,1-.032-.43,10.056,10.056,0,0,0-.469-4.472,1.808,1.808,0,0,1,.019-.617l.162,0a34.709,34.709,0,0,1,.786,5.044,4.75,4.75,0,0,1,.021.95Zm-.213-5.8c-.05-.052-.053-.147-.087-.218-.35-.729-.668-1.475-1.062-2.181a17.924,17.924,0,0,0-1.289-2.008,7.892,7.892,0,0,0-1.525-1.719,8.841,8.841,0,0,0-6.788-1.356,17.01,17.01,0,0,0-1.672.42c-.147.037-.284.068-.407.1l-.334-.327a5.522,5.522,0,0,1,1.345-.5c.464-.107.93-.209,1.4-.3A7.761,7.761,0,0,1,45.44,35.2a17.172,17.172,0,0,1,4.24,7.641,8.027,8.027,0,0,1,.147,4.216c-.126-.674-.165-1.356-.225-2.036C49.479,43.607,49.61,42.12,48.5,40.974ZM46.47,43.979a4.944,4.944,0,0,0-.05.556l-1.223-1.2c-.064-.31-.165-.616-.222-.929-.127-.712-.231-1.429-.344-2.144l.2-.038c.489,1.09.335,2.4,1.1,3.4a6.762,6.762,0,0,0-1.016-3.866,1.055,1.055,0,0,1-.552-.359,17.258,17.258,0,0,0-.97-1.5,4.86,4.86,0,0,0-4.718-1.972,4.8,4.8,0,0,0-.818.227l-.33-.324a4.315,4.315,0,0,1,4.869.505,11.966,11.966,0,0,1,3.393,4.423A5.343,5.343,0,0,1,46.47,43.979Zm-8.454-7.67a3.708,3.708,0,0,1,.461-.12,4.554,4.554,0,0,1,4.3,1.681,8.408,8.408,0,0,1,1.778,4.779c0,.02,0,.042.005.062l-.285-.279A10.266,10.266,0,0,0,43.13,39.1a4.2,4.2,0,0,0-4.175-2.449,2.319,2.319,0,0,1-.689-.1Zm1.549,1.516a2.985,2.985,0,0,1,2.17,2.124Zm7.048,12.5a10.374,10.374,0,0,1-.5,1.261,4.015,4.015,0,0,1-1.46,1.874c.357-.754.693-1.384.961-2.041.2-.488.42-.975.618-1.467Zm.292-5.316a9.655,9.655,0,0,0-3.892-8.726,5,5,0,0,0-5.3-1.022c-.17.074-.334.169-.5.257l-.455-.445a5.93,5.93,0,0,1,6.9,1.114c.661.629,1.175,1.411,1.8,2.083a5.8,5.8,0,0,1,1.386,2.865,16.763,16.763,0,0,1,.5,3.458q0,.419-.009.835Zm.907-.358a36.332,36.332,0,0,0-.476-3.74,9.992,9.992,0,0,0-3.947-5.538A5.02,5.02,0,0,0,40.476,34.1a8.335,8.335,0,0,0-3.929.774l-.474-.464a8.377,8.377,0,0,1,4.491-.715,5.644,5.644,0,0,1,4.058,2.028,27.21,27.21,0,0,1,1.98,2.621,6.389,6.389,0,0,1,1.324,3.737,35.889,35.889,0,0,0,.262,4.1c0,.031.005.062.008.092l-.306-.3A13.229,13.229,0,0,0,47.813,44.653Zm.415,7.254a27.762,27.762,0,0,1-2.248,2.632c-.955.958-2.062,1.763-3.1,2.636l-.124-.142c.269-.257.527-.528.809-.769a19,19,0,0,0,2.624-2.272,10.533,10.533,0,0,0,1.5-2.62ZM58.844,56.7,53.335,51.3l.859-1.177c-.05-.039-.1-.077-.151-.116l-.853,1.15-.227-.222c.284-.507.564-1.016.85-1.523.153-.271.311-.539.467-.807a3.741,3.741,0,0,0-.83.885c-.272.374-.542.75-.815,1.124l-.4-.4c.036-.049.071-.1.109-.15a1,1,0,0,0,.153-.379c.182-.856.365-1.711.525-2.571.024-.132-.071-.286-.111-.43-.1.11-.281.215-.29.333a8.4,8.4,0,0,1-.729,2.861l-.3-.293c.15-.368.256-.753.377-1.139.069-.221-.078-.51-.156-.924a9.823,9.823,0,0,0-.5,1.789l-.382-.374c.143-.583.28-1.141.414-1.695a8.235,8.235,0,0,0-.485-5.94c-.934-1.8-1.83-3.63-2.839-5.391-1.675-2.923-4.418-4.225-7.616-4.635a8.365,8.365,0,0,0-5.935,1.551l-.326-.319a8.784,8.784,0,0,1,6.427-1.705,22.055,22.055,0,0,1,4.487.889A6.574,6.574,0,0,1,48.012,33.7a46.314,46.314,0,0,1,3.493,5.77,9.484,9.484,0,0,1,1.367,6.7c-.026.116.1.266.161.4a6.015,6.015,0,0,0,.415-3.528,18.717,18.717,0,0,0-1.984-4.681c-.7-1.2-1.5-2.359-2.124-3.6A6.542,6.542,0,0,0,46.3,31.92,14.37,14.37,0,0,0,41.2,30.579a10.957,10.957,0,0,0-7.312,1.686l-.342-.334a9.939,9.939,0,0,1,4.7-1.786,12.226,12.226,0,0,1,6.591.7,15.675,15.675,0,0,1,7.285,5.95c.63.942,1.252,1.888,1.878,2.833l.149-.08a6.536,6.536,0,0,0-.515-1.224c-.662-.972-1.37-1.914-2.086-2.849a13.945,13.945,0,0,0-8.173-5.519,13.447,13.447,0,0,0-10.033,1.77L33,31.4a12.282,12.282,0,0,1,2.19-1.064,14.85,14.85,0,0,1,5.534-1.315,12.472,12.472,0,0,1,5.052,1.294,14.6,14.6,0,0,1,5.979,4.437c.4.561.9,1.048,1.359,1.568l.115-.115c-.414-.581-.821-1.167-1.244-1.743A13.469,13.469,0,0,0,40.361,28.81a14.453,14.453,0,0,0-7.6,2.352l-.406-.4c7.336-4.172,14.017-2.855,20.234,2.852a14.542,14.542,0,0,0-10.344-5.642,15.146,15.146,0,0,0-9.941,2.74l-.923-.9,4.692-2.495c-1.653.737-3.354,1.384-4.927,2.264l-.5-.485a16.624,16.624,0,0,1,10.018-2.5,6.283,6.283,0,0,1,.766.093c.871.184,1.743.369,2.608.577.882.212,1.757.454,2.635.68.166.042.335.072.6.13-1.32-1.175-7.193-2.068-10.4-1.589a18.292,18.292,0,0,0-6.483,2.36l-.463-.453c.059-.024.12-.045.178-.07,1.548-.676,3.078-1.4,4.651-2.007.863-.334,1.849-.364,2.69-.734a7.873,7.873,0,0,1,4.136-.594,7.459,7.459,0,0,0,2.257.08,4.378,4.378,0,0,1,2.388.182q1.145.387,2.293.772l.046-.1a1.673,1.673,0,0,0-.36-.278,10.539,10.539,0,0,0-4.5-1.185c-1.275.063-2.553.062-3.829.1-.357.01-.715.067-1.072.071-1.3.012-2.227,1.281-3.594,1.063-1.651.735-3.307,1.461-4.949,2.214a3.006,3.006,0,0,0-.512.316l-5.5-5.379A24.207,24.207,0,0,1,58.844,56.7Z" fill="currentColor"/>
  </g>
</svg>
