<svg xmlns="http://www.w3.org/2000/svg" width="83.893" height="71.395" viewBox="0 0 83.893 71.395">
  <path id="Path_1765" data-name="Path 1765" d="M583.306,355.586a2.867,2.867,0,0,0-.223-.369c-5.051-6.748-10.849-12.908-15.863-19.716a2.966,2.966,0,0,0-4.579-.59Q552.187,345,542.175,355.53c-4.782,5.04-11.12,10.526-14.866,16.766-2.178-2.338-4.4-4.64-6.6-6.946-1.541-1.609-3.243-4.339-5.677-4.674-2.009-.275-3.2,1.184-4.518,2.485-2.849,2.8-5.649,5.684-8.376,8.6a1.837,1.837,0,0,0,.844,3.086c3.155,5.308,9.071,9.928,13.339,14.167q7.975,7.922,15.99,15.8a2.34,2.34,0,0,0,2.265.565,2.143,2.143,0,0,0,1.237-.419c8.835-6.231,16.9-13.7,24.926-20.923,8.25-7.431,17.018-15.006,24.016-23.656A2.98,2.98,0,0,0,583.306,355.586Zm-18.974-14.2c.171.235.346.473.518.708a2.978,2.978,0,0,0-1.02-.144l-.027-.021-.016-.008C563.97,341.743,564.148,341.563,564.332,341.385Zm-12.181,12.09c1.2-1.221,2.4-2.455,3.609-3.668a3.277,3.277,0,0,0,.244.495Z" transform="translate(-501.576 -334.074)" fill="#450045"/>
</svg>
