<svg xmlns="http://www.w3.org/2000/svg" width="52.556" height="52.7" viewBox="0 0 52.556 52.7">
  <g id="Group_1874" data-name="Group 1874" transform="translate(-11.605 -11.5)">
    <path id="Path_1914" data-name="Path 1914" d="M52.347,28.915V21.174a5.238,5.238,0,0,0-4.57-5.187,4.592,4.592,0,0,0-9.182,0,5.238,5.238,0,0,0-4.57,5.187v7.742a25.279,25.279,0,0,1-4.556,11.055,4.37,4.37,0,0,0-.608,4.785c1.949,3.781,9.7,5.543,14.324,5.543s12.375-1.761,14.324-5.543a4.37,4.37,0,0,0-.608-4.785A25.4,25.4,0,0,1,52.347,28.915ZM46.409,15.941H43.06l3.073-1.148A3.2,3.2,0,0,1,46.409,15.941Zm-3.224-3.072a3.2,3.2,0,0,1,2.088.783L40.009,15.62A3.221,3.221,0,0,1,43.186,12.869Zm-7.792,8.306a3.869,3.869,0,0,1,3.865-3.865h7.853a3.869,3.869,0,0,1,3.865,3.865v7.1H35.394Zm20.9,22.956c-1.458,2.829-8.079,4.8-13.107,4.8s-11.649-1.972-13.107-4.8a3.066,3.066,0,0,1,.506-3.364,27.137,27.137,0,0,0,4.724-11.128H51.063a27.138,27.138,0,0,0,4.724,11.128A3.066,3.066,0,0,1,56.293,44.13Z" transform="translate(-5.303)" fill="currentColor"/>
    <path id="Path_1915" data-name="Path 1915" d="M49.684,74.895a.684.684,0,0,0-.684.684v7.943a.684.684,0,1,0,1.369,0V75.579A.684.684,0,0,0,49.684,74.895Z" transform="translate(-11.801 -20.006)" fill="currentColor"/>
    <path id="Path_1916" data-name="Path 1916" d="M34.367,71.067a.685.685,0,0,0-.943.219l-4.2,6.741a.684.684,0,1,0,1.162.724l4.2-6.741A.684.684,0,0,0,34.367,71.067Z" transform="translate(-5.527 -18.766)" fill="currentColor"/>
    <path id="Path_1917" data-name="Path 1917" d="M22.77,60.428l-7.131,3.5a.685.685,0,0,0,.6,1.229l7.131-3.5a.685.685,0,0,0-.6-1.229Z" transform="translate(-1.152 -15.419)" fill="currentColor"/>
    <path id="Path_1918" data-name="Path 1918" d="M20.193,47.288a.684.684,0,0,0,.068-1.365l-7.9-.8a.685.685,0,1,0-.138,1.362l7.9.8C20.147,47.287,20.17,47.288,20.193,47.288Z" transform="translate(0 -10.609)" fill="currentColor"/>
    <path id="Path_1919" data-name="Path 1919" d="M64.007,71.285a.684.684,0,1,0-1.162.724l4.2,6.741a.684.684,0,1,0,1.162-.724Z" transform="translate(-16.138 -18.766)" fill="currentColor"/>
    <path id="Path_1920" data-name="Path 1920" d="M80.442,63.926l-7.131-3.5a.685.685,0,0,0-.6,1.229l7.131,3.5a.685.685,0,0,0,.6-1.229Z" transform="translate(-19.162 -15.419)" fill="currentColor"/>
    <path id="Path_1921" data-name="Path 1921" d="M83.366,45.12l-7.9.8a.684.684,0,0,0,.068,1.365c.023,0,.046,0,.07,0l7.9-.8a.685.685,0,1,0-.138-1.362Z" transform="translate(-19.959 -10.609)" fill="currentColor"/>
  </g>
</svg>
