<svg xmlns="http://www.w3.org/2000/svg" width="53" height="53" viewBox="0 0 53 53">
  <g id="Group_1799" data-name="Group 1799" transform="translate(-1 -1)">
    <path id="Path_1730" data-name="Path 1730" d="M48.871,24.128H43.742V19h-1.71V51.476H11.258V22.419H9.548v1.709H6.129A5.134,5.134,0,0,0,1,29.256v22.22A5.134,5.134,0,0,0,6.129,56.6H48.871A5.134,5.134,0,0,0,54,51.476V29.256A5.134,5.134,0,0,0,48.871,24.128ZM43.742,53.185V25.837h1.71V54.895H7.839V25.837h1.71V53.185ZM4.419,29.256a4.25,4.25,0,0,1,1.71-3.4V54.876a4.253,4.253,0,0,1-1.71-3.4ZM52.29,51.476a3.422,3.422,0,0,1-3.419,3.419h-1.71V25.837h1.71a3.422,3.422,0,0,1,3.419,3.419Z" transform="translate(0 -2.604)" fill="currentColor"/>
    <rect id="Rectangle_447" data-name="Rectangle 447" width="1.711" height="8.553" transform="translate(48.868 33.48)" fill="currentColor"/>
    <path id="Path_1731" data-name="Path 1731" d="M38.711,6.132l2.566,1.924,2.566-1.924V7.843h1.711V5.277a4.277,4.277,0,0,0-8.553,0V7.843h1.711Zm2.566-3.421a2.563,2.563,0,0,1,2.313,1.474L41.277,5.918,38.964,4.184A2.563,2.563,0,0,1,41.277,2.711Z" transform="translate(-5.229)" fill="currentColor"/>
    <path id="Path_1732" data-name="Path 1732" d="M16.711,8.132l2.566,1.924,2.566-1.924V9.843h1.711V7.277a4.277,4.277,0,0,0-8.553,0V9.843h1.711Zm2.566-3.421a2.563,2.563,0,0,1,2.313,1.474L19.277,7.918,16.964,6.184A2.563,2.563,0,0,1,19.277,4.711Z" transform="translate(-2.034 -0.289)" fill="currentColor"/>
    <path id="Path_1733" data-name="Path 1733" d="M27.711,16.132l2.566,1.924,2.566-1.924v1.711h1.711V15.277a4.277,4.277,0,0,0-8.553,0v2.566h1.711Zm2.566-3.421a2.563,2.563,0,0,1,2.313,1.474l-2.313,1.734-2.313-1.734A2.563,2.563,0,0,1,30.277,12.711Z" transform="translate(-3.631 -1.452)" fill="currentColor"/>
    <path id="Path_1734" data-name="Path 1734" d="M33.541,52.625V51.9l5.987.855V50.531l-.855-.763V47.493H36.962v.748l-3.441-3.071a6.485,6.485,0,0,0-1.9-4.224l-2.362-2.362L26.9,40.948a6.485,6.485,0,0,0-1.9,4.224l-3.441,3.071v-.748H19.855v2.274L19,50.531v2.226l5.987-.855v.724Zm0-2.453V47.481l3.591,3.2Zm-6.843-4.6a4.8,4.8,0,0,1,1.414-3.414L29.264,41l1.152,1.152a4.8,4.8,0,0,1,1.414,3.414v5.343H30.119V47.493H28.409v3.421H26.7Zm-5.3,5.114,3.591-3.2v2.692Z" transform="translate(-2.618 -5.468)" fill="currentColor"/>
    <rect id="Rectangle_448" data-name="Rectangle 448" width="1.711" height="1.711" transform="translate(34.338 38.612)" fill="currentColor"/>
    <rect id="Rectangle_449" data-name="Rectangle 449" width="1.711" height="5.132" transform="translate(34.338 31.772)" fill="currentColor"/>
    <rect id="Rectangle_450" data-name="Rectangle 450" width="1.711" height="1.711" transform="translate(34.338 28.354)" fill="currentColor"/>
    <rect id="Rectangle_451" data-name="Rectangle 451" width="1.711" height="1.711" transform="translate(17.242 38.612)" fill="currentColor"/>
    <rect id="Rectangle_452" data-name="Rectangle 452" width="1.711" height="5.132" transform="translate(17.242 31.772)" fill="currentColor"/>
    <rect id="Rectangle_453" data-name="Rectangle 453" width="1.711" height="1.711" transform="translate(17.242 28.354)" fill="currentColor"/>
    <rect id="Rectangle_454" data-name="Rectangle 454" width="1.711" height="10.264" transform="translate(42.031 1)" fill="currentColor"/>
    <rect id="Rectangle_455" data-name="Rectangle 455" width="1.711" height="1.711" transform="translate(42.031 12.967)" fill="currentColor"/>
    <rect id="Rectangle_456" data-name="Rectangle 456" width="1.711" height="8.553" transform="translate(9.553 9.547)" fill="currentColor"/>
    <rect id="Rectangle_457" data-name="Rectangle 457" width="1.711" height="6.843" transform="translate(9.553 1)" fill="currentColor"/>
  </g>
</svg>
