<svg xmlns="http://www.w3.org/2000/svg" width="46.903" height="52.415" viewBox="0 0 46.903 52.415">
  <path id="Path_1747" data-name="Path 1747" d="M49.9,14.417a1.407,1.407,0,0,0-.772-1.241L27.057,2.142a1.352,1.352,0,0,0-1.214,0L3.776,13.175a1.379,1.379,0,0,0,0,2.483l11.309,5.655L3.776,26.967a1.379,1.379,0,0,0,0,2.483L15.085,35.1,3.776,40.759a1.379,1.379,0,0,0,0,2.483L25.843,54.275a1.407,1.407,0,0,0,1.214,0L49.124,43.242a1.379,1.379,0,0,0,0-2.483L37.814,35.1l11.309-5.517a1.379,1.379,0,0,0,0-2.483L37.814,21.312,49.124,15.8a1.407,1.407,0,0,0,.772-1.379ZM45.427,42,26.45,51.489,7.472,42l10.7-5.351,7.668,3.972a1.407,1.407,0,0,0,1.214,0l7.668-3.834Zm0-13.792L26.45,37.7,7.472,28.208l10.7-5.351,7.668,3.972a1.407,1.407,0,0,0,1.214,0l7.668-3.972Zm-18.978-4.3L7.472,14.417,26.45,4.928l18.978,9.489Z" transform="translate(-2.998 -1.998)" fill="currentColor"/>
</svg>
