<svg xmlns="http://www.w3.org/2000/svg" width="64.29" height="26.867" viewBox="0 0 64.29 26.867">
  <path id="Path_1748" data-name="Path 1748" d="M665.636,103.908A8.636,8.636,0,0,1,657,95.272c0-1.675.945-4.149,2.617-7.316.413-.783.865-1.6,1.35-2.432.848-1.463,1.756-2.927,2.664-4.325.318-.489.613-.935.878-1.33.16-.238.274-.406.337-.5a.96.96,0,0,1,1.579,0c.062.09.177.258.337.5.265.394.56.84.878,1.33.908,1.4,1.816,2.862,2.664,4.325.485.836.937,1.649,1.35,2.432,1.672,3.167,2.617,5.641,2.617,7.316A8.636,8.636,0,0,1,665.636,103.908Zm-.395-21.663c-.891,1.373-1.783,2.811-2.613,4.243-.473.815-.913,1.606-1.313,2.365-1.527,2.892-2.4,5.165-2.4,6.42a6.717,6.717,0,1,0,13.434,0c0-1.255-.868-3.528-2.4-6.42-.4-.759-.841-1.55-1.313-2.365-.831-1.432-1.722-2.87-2.614-4.243q-.2-.314-.395-.6Q665.446,81.93,665.241,82.244Zm46.453,22.623a9.6,9.6,0,0,1-9.6-9.6c0-1.885.984-4.46,2.728-7.764.419-.794.878-1.618,1.369-2.465.857-1.478,1.773-2.956,2.689-4.366.321-.494.619-.944.886-1.342.162-.241.279-.412.343-.506a1.919,1.919,0,0,1,3.158,0c.064.093.181.265.343.506.268.4.566.849.887,1.342.916,1.41,1.832,2.888,2.689,4.366.491.847.95,1.671,1.369,2.465,1.744,3.3,2.728,5.879,2.728,7.764A9.6,9.6,0,0,1,711.694,104.867Zm-23.029-.96a8.636,8.636,0,0,1-8.636-8.636c0-1.675.945-4.149,2.617-7.316.413-.783.865-1.6,1.35-2.432.848-1.463,1.756-2.927,2.664-4.325.318-.489.613-.935.878-1.33.16-.238.274-.406.337-.5a.96.96,0,0,1,1.579,0c.062.09.177.258.337.5.265.394.56.84.878,1.33.908,1.4,1.816,2.862,2.664,4.325.485.836.937,1.649,1.35,2.432,1.672,3.167,2.617,5.641,2.617,7.316A8.636,8.636,0,0,1,688.665,103.908ZM694.142,91.2c-.327-.724-.713-1.509-1.156-2.347q-.4-.75-.841-1.539L682.08,96.6a6.711,6.711,0,0,0,2.167,3.728Zm.768,1.9-8.993,8.3a6.72,6.72,0,0,0,9.465-6.131A7.137,7.137,0,0,0,694.91,93.1Zm-3.752-7.489c-.679-1.14-1.389-2.274-2.1-3.367q-.2-.314-.395-.6-.19.289-.395.6c-.891,1.373-1.783,2.811-2.614,4.243-.473.815-.913,1.606-1.313,2.365a26.785,26.785,0,0,0-2.175,5.059Z" transform="translate(-657 -78)" fill="currentColor" fill-rule="evenodd"/>
</svg>
