<svg xmlns="http://www.w3.org/2000/svg" width="25.396" height="52" viewBox="0 0 25.396 52">
  <path id="Path_1768" data-name="Path 1768" d="M50.767,7H32.628A3.639,3.639,0,0,0,29,10.628V46.907a3.639,3.639,0,0,0,3.628,3.628h7.256v3.628h1.209V59H42.3V54.163h1.209V50.535h7.256A3.639,3.639,0,0,0,54.4,46.907V10.628A3.639,3.639,0,0,0,50.767,7ZM42.3,52.953H41.093V50.535H42.3Zm10.884-6.047a2.426,2.426,0,0,1-2.419,2.419H32.628a2.426,2.426,0,0,1-2.419-2.419V10.628a2.426,2.426,0,0,1,2.419-2.419h18.14a2.426,2.426,0,0,1,2.419,2.419ZM43.512,9.419H39.884v1.209h3.628ZM41.7,43.279A2.419,2.419,0,1,0,44.116,45.7,2.426,2.426,0,0,0,41.7,43.279Zm0,3.628A1.209,1.209,0,1,1,42.907,45.7,1.213,1.213,0,0,1,41.7,46.907ZM47.14,24.535h-13.3a1.782,1.782,0,0,0-1.814,1.814v4.837A1.782,1.782,0,0,0,33.837,33h13.3a1.782,1.782,0,0,0,1.814-1.814V26.349A1.782,1.782,0,0,0,47.14,24.535Zm-13.3,7.256a.571.571,0,0,1-.6-.6V26.349a.571.571,0,0,1,.6-.6h6.712L38.13,29.372h2.419l-1.633,2.419Zm13.907-.6a.571.571,0,0,1-.6.6H40.428l2.419-3.628H40.428l1.633-2.419H47.14a.571.571,0,0,1,.6.6Zm2.419-.6h1.209V26.953H50.163Z" transform="translate(-29 -7)" fill="currentColor"/>
</svg>
