<svg xmlns="http://www.w3.org/2000/svg" width="51.375" height="51.267" viewBox="0 0 51.375 51.267">
  <g id="Group_1855" data-name="Group 1855" transform="translate(-2.5 -2.6)">
    <path id="Path_1830" data-name="Path 1830" d="M45.547,6.277H40.572V4.06a1.46,1.46,0,1,0-2.92,0v7.625a2.844,2.844,0,0,0-1.46,2.488,2.921,2.921,0,1,0,4.38-2.488V9.2h4.975a5.389,5.389,0,0,1,5.408,5.408v4.489H5.42V14.606A5.424,5.424,0,0,1,10.828,9.2H13.37V6.277H10.828A8.332,8.332,0,0,0,2.5,14.606V45.539a8.332,8.332,0,0,0,8.328,8.328H45.547a8.332,8.332,0,0,0,8.328-8.328V14.606A8.332,8.332,0,0,0,45.547,6.277Zm5.408,39.261a5.389,5.389,0,0,1-5.408,5.408H10.828A5.389,5.389,0,0,1,5.42,45.539V22.014H51.009V45.539Z" transform="translate(0 0)" fill="currentColor"/>
    <path id="Path_1831" data-name="Path 1831" d="M21.937,55.373H24.37a3.137,3.137,0,1,0,0-6.273H21.937A3.139,3.139,0,0,0,18.8,52.237,3.174,3.174,0,0,0,21.937,55.373Z" transform="translate(-7.485 -21.353)" fill="currentColor"/>
    <path id="Path_1832" data-name="Path 1832" d="M45.137,55.373H47.57a3.137,3.137,0,1,0,0-6.273H45.137a3.137,3.137,0,1,0,0,6.273Z" transform="translate(-18.139 -21.353)" fill="currentColor"/>
    <path id="Path_1833" data-name="Path 1833" d="M68.337,55.373H70.77a3.137,3.137,0,1,0,0-6.273H68.337a3.137,3.137,0,1,0,0,6.273Z" transform="translate(-28.792 -21.353)" fill="currentColor"/>
    <path id="Path_1834" data-name="Path 1834" d="M21.937,75.873H24.37a3.137,3.137,0,0,0,0-6.273H21.937A3.139,3.139,0,0,0,18.8,72.737,3.174,3.174,0,0,0,21.937,75.873Z" transform="translate(-7.485 -30.767)" fill="currentColor"/>
    <path id="Path_1835" data-name="Path 1835" d="M45.137,75.873H47.57a3.137,3.137,0,0,0,0-6.273H45.137a3.137,3.137,0,0,0,0,6.273Z" transform="translate(-18.139 -30.767)" fill="currentColor"/>
    <path id="Path_1836" data-name="Path 1836" d="M68.337,75.873H70.77a3.137,3.137,0,0,0,0-6.273H68.337a3.137,3.137,0,0,0,0,6.273Z" transform="translate(-28.792 -30.767)" fill="currentColor"/>
    <path id="Path_1837" data-name="Path 1837" d="M27.32,17.039a2.894,2.894,0,0,0,1.46-5.408V9.144H45.329V6.277H28.78V4.06a1.46,1.46,0,0,0-2.92,0v7.625a2.844,2.844,0,0,0-1.46,2.488A2.9,2.9,0,0,0,27.32,17.039Z" transform="translate(-10.057 0)" fill="currentColor"/>
  </g>
</svg>
