<svg xmlns="http://www.w3.org/2000/svg" width="112.283" height="26.366" viewBox="0 0 112.283 26.366">
  <g id="indir" transform="translate(-0.22 -0.796)">
    <g id="Veloxity-_with-text_-Copy" data-name="Veloxity-(with-text)-Copy" transform="translate(0.22 0.796)">
      <path id="Path" d="M6.416,68.412h.209l.946-4.057L10.929,55.8h4.051L8.8,71.066H3.72L.22,55.8H4.273l1.848,8.5Z" transform="translate(-0.22 -50.197)" fill="#2e2d36"/>
      <path id="Shape" d="M156.276,60.31H163.3a2.484,2.484,0,0,0-1.028-1.914,3.709,3.709,0,0,0-2.173-.628,4.614,4.614,0,0,0-2.388.643,3.06,3.06,0,0,0-1.436,1.9Zm6.87,4.525,2.1,2.02a8.58,8.58,0,0,1-6.225,2.822,6.5,6.5,0,0,1-5.449-2.346,7.464,7.464,0,0,1-1.531-5.523,8.739,8.739,0,0,1,2.518-5.465A7.791,7.791,0,0,1,160.356,54a6.448,6.448,0,0,1,5.157,2.123,6.84,6.84,0,0,1,1.618,5.36,11.092,11.092,0,0,1-.342,2.016H155.953a2.8,2.8,0,0,0,1.43,2.139,4.288,4.288,0,0,0,2.844.489,5.792,5.792,0,0,0,2.924-1.291Z" transform="translate(-136.549 -48.584)" fill="#2e2d36"/>
      <path id="Path-2" data-name="Path" d="M331.328,18.228l-.29,3.313a5.83,5.83,0,0,1-4.421-.715q-1.622-1.159-1.361-4.112L326.668.8h4.105l-1.411,15.919q-.145,1.687,1.966,1.509Z" transform="translate(-292.136 -0.796)" fill="#2e2d36"/>
      <path id="Shape-2" data-name="Shape" d="M415.195,60.893a3.6,3.6,0,0,0,3.57,4.119,4.159,4.159,0,0,0,2.79-1.1,4.314,4.314,0,0,0,1.433-3.017,3.651,3.651,0,0,0-.894-3.06,3.572,3.572,0,0,0-2.611-1.066,4.315,4.315,0,0,0-2.8,1.088,4.225,4.225,0,0,0-1.477,3.031Zm11.745.047a8.575,8.575,0,0,1-8.611,7.939,7.176,7.176,0,0,1-5.486-2.245,7.037,7.037,0,0,1-1.8-5.694,8.363,8.363,0,0,1,2.777-5.734A8.533,8.533,0,0,1,419.71,53a6.89,6.89,0,0,1,7.233,7.94Z" transform="translate(-369.183 -47.686)" fill="#2e2d36"/>
      <path id="Path-3" data-name="Path" d="M576.907,66.8l3.507-5h4.6l-5.533,7.585,4.268,7.583h-4.6l-2.675-5.072-3.56,5.072H568.22l5.619-7.553-4.2-7.615h4.722Z" transform="translate(-510.399 -55.586)" fill="#cc1977"/>
      <path id="Shape-3" data-name="Shape" d="M756.319,6.7H760.4l-1.319,15.066H755Zm4.155-1.934h-3.947L756.855,1H760.8Z" transform="translate(-678.165 -0.979)" fill="#2e2d36"/>
      <g id="Group" transform="translate(86.019)">
        <path id="Path-4" data-name="Path" d="M7.569,18.113l-.3,3.436a8.081,8.081,0,0,1-3.221-.1,3.848,3.848,0,0,1-2.289-1.6,4.425,4.425,0,0,1-.621-3.127l.6-6.936H.22L.5,6.523h1.52L2.515.8h4L6.025,6.523H8.567l-.282,3.26H5.743l-.59,6.847a1.222,1.222,0,0,0,.582,1.2,2.7,2.7,0,0,0,1.836.286Z" transform="translate(-0.22 -0.796)" fill="#2e2d36"/>
        <path id="Path-5" data-name="Path" d="M113.138,67.627h.143l1-3.3,3.342-7.535h4.066l-8.118,17.626a4.738,4.738,0,0,1-2.9,2.64,7.7,7.7,0,0,1-4.015.238l.267-3.055a9.963,9.963,0,0,0,1.531-.089,1.53,1.53,0,0,0,.932-.563,3.425,3.425,0,0,0,.581-.95q.184-.474.574-1.75L106.22,56.8h4.066l2.437,7.565Z" transform="translate(-95.429 -51.095)" fill="#2e2d36"/>
      </g>
    </g>
  </g>
</svg>
